<svg viewBox="0 0 32 32" xmlns="http://www.w3.org/2000/svg" fill-rule="evenodd" clip-rule="evenodd" stroke-linejoin="round" stroke-miterlimit="2"><path d="M32 4v24c0 2.208-1.792 4-4 4H4c-2.208 0-4-1.792-4-4V4c0-2.207 1.792-4 4-4h24c2.208 0 4 1.793 4 4"/><path d="M9.035 12.476c.264-.33.443-.773.395-1.225-.385.019-.856.254-1.129.584-.245.283-.462.744-.405 1.178.433.037.866-.217 1.139-.537m.391.621c-.63-.037-1.165.357-1.465.357s-.761-.338-1.258-.33a1.86 1.86 0 0 0-1.578.96c-.676 1.165-.178 2.893.479 3.842.319.47.704.987 1.211.968.479-.02.667-.31 1.249-.31s.751.31 1.258.3c.526-.01.855-.47 1.174-.94.367-.534.516-1.051.526-1.08-.01-.01-1.014-.394-1.023-1.55-.01-.967.788-1.427.826-1.456-.451-.667-1.155-.742-1.399-.761m5.478-1.309c1.368 0 2.32.943 2.32 2.315 0 1.378-.972 2.325-2.354 2.325h-1.514v2.408h-1.094v-7.048zm-1.548 3.722h1.255c.953 0 1.495-.513 1.495-1.402 0-.89-.542-1.397-1.49-1.397h-1.26zm4.154 1.866c0-.9.689-1.451 1.91-1.52l1.406-.082v-.396c0-.571-.386-.913-1.03-.913-.611 0-.992.293-1.084.752h-.997c.059-.928.85-1.612 2.12-1.612 1.245 0 2.041.659 2.041 1.69v3.54h-1.011v-.844h-.024c-.298.572-.948.933-1.621.933-1.007 0-1.71-.625-1.71-1.548m3.316-.464v-.406l-1.265.078c-.63.044-.986.323-.986.762 0 .45.371.743.938.743.737 0 1.313-.508 1.313-1.177m2.005 3.814v-.855c.078.02.254.02.342.02.488 0 .752-.206.913-.733 0-.01.093-.313.093-.318l-1.856-5.143h1.143l1.299 4.18h.019l1.3-4.18h1.113l-1.924 5.407c-.44 1.246-.948 1.646-2.012 1.646-.088 0-.352-.01-.43-.024" fill="#f8fafc" fill-rule="nonzero"/></svg>