<svg width="44" height="18" fill="none" xmlns="http://www.w3.org/2000/svg"><path fill-rule="evenodd" clip-rule="evenodd" d="M6.127 3.34c.812.068 1.624-.411 2.132-1.02.499-.624.829-1.463.744-2.32-.719.034-1.607.48-2.115 1.105-.465.54-.863 1.413-.761 2.235m9.66 11.03V1.02h4.95c2.555 0 4.34 1.78 4.34 4.384s-1.82 4.401-4.408 4.401h-2.834v4.564zM8.996 3.502c-.716-.042-1.368.218-1.896.427-.34.135-.626.25-.845.25-.245 0-.545-.121-.88-.256-.44-.177-.944-.38-1.472-.37-1.21.017-2.335.71-2.952 1.816-1.27 2.209-.33 5.48.896 7.278.601.89 1.32 1.867 2.268 1.833.416-.016.716-.145 1.027-.278.357-.154.728-.313 1.307-.313.56 0 .915.155 1.255.304.324.142.635.278 1.097.27.982-.017 1.6-.89 2.2-1.781a7.9 7.9 0 0 0 .976-2.03l.005-.017-.023-.011c-.217-.1-1.873-.868-1.889-2.926-.016-1.728 1.314-2.603 1.523-2.74l.025-.018c-.846-1.267-2.165-1.404-2.622-1.438m19.82 10.969c1.287 0 2.48-.66 3.02-1.704h.043v1.601h1.895V7.724c0-1.927-1.523-3.168-3.866-3.168-2.174 0-3.782 1.259-3.84 2.988h1.843c.153-.822.906-1.361 1.938-1.361 1.252 0 1.954.59 1.954 1.678v.737l-2.555.154c-2.377.145-3.663 1.13-3.663 2.843 0 1.73 1.328 2.877 3.232 2.877m.55-1.584c-1.091 0-1.785-.531-1.785-1.345 0-.839.669-1.327 1.946-1.404l2.276-.146v.754c0 1.25-1.05 2.14-2.437 2.14m10.693 2.004C39.238 17.23 38.298 18 36.302 18c-.152 0-.66-.017-.778-.051v-1.601c.127.017.44.034.6.034.906 0 1.413-.386 1.726-1.387l.187-.591-3.469-9.72h2.14l2.411 7.887h.043l2.41-7.887h2.082zM17.835 2.766h2.36c1.777 0 2.792.96 2.792 2.646 0 1.687-1.015 2.655-2.8 2.655h-2.352z" fill="#0F0F12"/></svg>