<svg width="293" height="133" fill="none" xmlns="http://www.w3.org/2000/svg"><g filter="url(#a)"><path d="M52.656 11.589c-.841-2.102.707-4.389 2.97-4.389H88.5a3.2 3.2 0 0 1 3.2 3.2v34.4a3.2 3.2 0 0 1-3.2 3.2H55.627c-2.264 0-3.812-2.286-2.971-4.388l5.929-14.823a3.2 3.2 0 0 0 0-2.377z" fill="#18181B"/><path d="M55.627 8H88.5a2.4 2.4 0 0 1 2.4 2.4v34.4a2.4 2.4 0 0 1-2.4 2.4H55.627a2.4 2.4 0 0 1-2.229-3.29l5.93-14.824a4 4 0 0 0 0-2.972l-5.93-14.822A2.4 2.4 0 0 1 55.627 8Z" stroke="#27272A" stroke-width="1.6"/></g><path d="m75.701 36 16 12V36z" fill="black" fill-opacity=".4"/><g filter="url(#b)"><path d="M240.747 11.589c.84-2.102-.708-4.389-2.972-4.389h-32.873a3.2 3.2 0 0 0-3.2 3.2v34.4a3.2 3.2 0 0 0 3.2 3.2h32.873c2.264 0 3.812-2.286 2.972-4.388l-5.93-14.823a3.2 3.2 0 0 1 0-2.377z" fill="#18181B"/><path d="M237.775 8h-32.873a2.4 2.4 0 0 0-2.4 2.4v34.4a2.4 2.4 0 0 0 2.4 2.4h32.873a2.4 2.4 0 0 0 2.229-3.29l-5.93-14.824a4 4 0 0 1 0-2.972l5.93-14.822A2.4 2.4 0 0 0 237.775 8Z" stroke="#27272A" stroke-width="1.6"/></g><path d="m217.701 36-16 12V36z" fill="black" fill-opacity=".4"/><g filter="url(#c)"><path d="M75.701 8a8 8 0 0 1 8-8h126a8 8 0 0 1 8 8v28h-142z" fill="#18181B" shape-rendering="crispEdges"/><path d="M83.701.8h126a7.2 7.2 0 0 1 7.2 7.2v27.2h-140.4V8a7.2 7.2 0 0 1 7.2-7.2Z" stroke="#27272A" stroke-width="1.6" shape-rendering="crispEdges"/><path d="M96.905 19V8.818h4.076q1.124 0 1.874.333.751.333 1.129.925.378.587.378 1.352 0 .597-.239 1.05a2.06 2.06 0 0 1-.656.735 2.7 2.7 0 0 1-.945.403v.1a2.3 2.3 0 0 1 1.089.327q.513.304.83.85.32.543.319 1.293 0 .81-.403 1.447-.398.63-1.178 1-.781.367-1.924.367zm2.152-1.76h1.755q.9 0 1.313-.343.412-.348.412-.925 0-.422-.204-.745a1.4 1.4 0 0 0-.581-.508 2 2 0 0 0-.89-.183h-1.805zm0-4.161h1.596a1.9 1.9 0 0 0 .786-.154 1.3 1.3 0 0 0 .546-.448q.204-.288.204-.69 0-.553-.392-.89-.388-.339-1.104-.339h-1.636zM106.16 19V8.818h2.153v8.407h4.365V19zm9.958 0h-2.306l3.515-10.182h2.774L123.611 19h-2.307l-2.551-7.855h-.079zm-.144-4.002h5.449v1.68h-5.449zm17.367-2.615h-2.177a2.1 2.1 0 0 0-.244-.75 1.9 1.9 0 0 0-.472-.568 2.1 2.1 0 0 0-.666-.358 2.6 2.6 0 0 0-.811-.124q-.79 0-1.377.393-.586.387-.91 1.133-.323.741-.323 1.8 0 1.089.323 1.83.328.74.915 1.118t1.357.378q.433 0 .801-.114.373-.114.661-.333.288-.224.477-.542.195-.318.269-.726l2.177.01a4.06 4.06 0 0 1-1.322 2.51 4.2 4.2 0 0 1-1.343.806q-.776.293-1.754.293-1.363 0-2.437-.616-1.069-.617-1.69-1.785-.616-1.168-.616-2.829 0-1.665.626-2.834.627-1.168 1.7-1.78 1.074-.616 2.417-.616.884 0 1.64.249.76.248 1.347.725.588.472.955 1.159.374.685.477 1.57M134.885 19V8.818h2.153v4.49h.134l3.664-4.49h2.58l-3.778 4.56L143.461 19h-2.575l-2.789-4.186-1.059 1.293V19zm12.893 0V8.818h6.741v1.775h-4.589v2.426h4.142v1.775h-4.142V19zm8.189 0V8.818h4.017q1.153 0 1.969.413.82.408 1.248 1.158.432.745.432 1.755 0 1.014-.437 1.745-.438.726-1.268 1.114-.825.387-1.999.388h-2.689v-1.73h2.341q.617 0 1.024-.17a1.22 1.22 0 0 0 .607-.507q.204-.337.204-.84 0-.507-.204-.855a1.25 1.25 0 0 0-.612-.527q-.406-.184-1.029-.184h-1.451V19zm5.499-4.633 2.53 4.633h-2.376l-2.476-4.633zm5.841-5.549V19h-2.153V8.818zM172.688 19h-3.61V8.818h3.64q1.536 0 2.644.612 1.11.606 1.706 1.745.601 1.138.601 2.724 0 1.59-.601 2.735a4.14 4.14 0 0 1-1.716 1.755q-1.113.61-2.664.611m-1.457-1.844h1.367q.955 0 1.606-.338a2.17 2.17 0 0 0 .984-1.06q.333-.72.333-1.859 0-1.128-.333-1.844a2.15 2.15 0 0 0-.979-1.054q-.65-.338-1.606-.338h-1.372zM180.445 19h-2.307l3.515-10.182h2.774L187.937 19h-2.307l-2.55-7.855H183zm-.145-4.002h5.449v1.68H180.3zm7.227-6.18h2.411l2.322 4.385h.099l2.322-4.385h2.411l-3.714 6.583V19h-2.138v-3.6z" fill="#E4E4E7"/></g><g filter="url(#d)"><path d="M4 41c0-8.837 7.163-16 16-16h253c8.837 0 16 7.163 16 16v68c0 8.837-7.163 16-16 16H20c-8.837 0-16-7.163-16-16z" fill="#18181B" shape-rendering="crispEdges"/><path d="M20 26h253c8.284 0 15 6.716 15 15v68c0 8.284-6.716 15-15 15H20c-8.284 0-15-6.716-15-15V41c0-8.284 6.716-15 15-15Z" stroke="url(#e)" stroke-width="2" shape-rendering="crispEdges"/><g filter="url(#f)"><path d="M51.182 101.352q-6.737-.024-11.398-3.115-4.66-3.09-6.834-8.91t-1.473-13.958q.724-8.162 3.84-13.86 3.139-5.7 8.258-8.67 5.144-2.97 11.857-2.97 6.737 0 11.373 2.97 4.66 2.97 6.834 8.67 2.198 5.698 1.497 13.86-.675 8.163-3.815 13.982-3.116 5.82-8.258 8.91-5.145 3.091-11.881 3.091m.917-10.915q3.478 0 5.965-3.622 2.511-3.645 3.163-11.446.435-5.096-.314-8.33-.725-3.237-2.39-4.782-1.642-1.57-3.96-1.57-3.478 0-5.99 3.526-2.51 3.526-3.187 11.156-.435 5.192.314 8.549.75 3.332 2.415 4.926t3.984 1.594m55.025.29.242-2.608a13.7 13.7 0 0 1 1.859-5.795q1.595-2.657 4.323-4.274 2.728-1.618 6.471-1.618 3.84 0 6.351 1.594 2.512 1.593 3.646 4.25 1.136 2.655.821 5.843l-.241 2.608a13.7 13.7 0 0 1-1.884 5.796q-1.57 2.655-4.322 4.274-2.753 1.618-6.544 1.618t-6.278-1.618-3.623-4.274q-1.11-2.68-.821-5.796m8.645-2.608-.241 2.608q-.122 1.352.459 2.705.579 1.352 2.487 1.352 2.004 0 2.753-1.304a6.7 6.7 0 0 0 .869-2.753l.241-2.608a6.1 6.1 0 0 0-.362-2.8q-.507-1.353-2.584-1.353-1.907 0-2.704 1.352a7 7 0 0 0-.918 2.801M83.604 62.426l.194-2.608q.24-3.21 1.835-5.844 1.618-2.655 4.37-4.25 2.754-1.593 6.448-1.593 3.84 0 6.327 1.593 2.487 1.595 3.598 4.25 1.134 2.633.893 5.844l-.193 2.608q-.218 3.187-1.811 5.82-1.594 2.632-4.371 4.201-2.776 1.57-6.568 1.57-3.79 0-6.254-1.594-2.463-1.593-3.574-4.226t-.894-5.77m8.694-2.608-.194 2.608a5.9 5.9 0 0 0 .46 2.753q.554 1.305 2.39 1.304 2.004 0 2.753-1.304a6.14 6.14 0 0 0 .87-2.753l.192-2.608q.12-1.45-.386-2.801-.483-1.352-2.56-1.352-1.907 0-2.68 1.4-.749 1.377-.845 2.753M84.522 100l38.105-49.454h7.051L91.573 100zm64.821 0 4.105-49.454h34.773l-.917 10.818h-21.347l-.676 8.5h19.221l-.917 10.818h-19.222L162.769 100zm53.546.676q-5.94 0-10.045-2.27-4.081-2.295-6.037-6.568-1.956-4.297-1.449-10.287.483-5.747 3.163-10.045 2.68-4.299 7.1-6.69 4.418-2.39 10.166-2.39 4.201 0 7.486 1.304 3.307 1.304 5.505 3.791 2.222 2.463 3.212 5.989 1.014 3.525.652 7.944l-.241 3.092H189.27l.579-7.342h20.864q.12-1.593-.555-2.8a4.55 4.55 0 0 0-1.908-1.908q-1.231-.7-2.898-.7a6.66 6.66 0 0 0-3.018.7 6.2 6.2 0 0 0-2.318 1.907q-.894 1.232-1.087 2.898l-.724 7.824q-.145 1.787.482 3.188a4.8 4.8 0 0 0 1.956 2.197q1.329.797 3.309.797 1.376 0 2.559-.386a6.2 6.2 0 0 0 2.053-1.111 5.1 5.1 0 0 0 1.376-1.787h12.171q-.966 3.864-3.55 6.713-2.56 2.825-6.544 4.395-3.96 1.545-9.128 1.545m40.011 0q-5.94 0-10.045-2.27-4.081-2.295-6.037-6.568-1.956-4.297-1.449-10.287.483-5.747 3.163-10.045 2.68-4.299 7.1-6.69t10.166-2.39q4.201 0 7.486 1.304 3.308 1.304 5.505 3.791 2.223 2.463 3.212 5.989 1.014 3.525.652 7.944l-.241 3.092h-33.131l.58-7.342h20.863q.121-1.593-.555-2.8a4.55 4.55 0 0 0-1.908-1.908q-1.232-.7-2.898-.7a6.66 6.66 0 0 0-3.018.7 6.2 6.2 0 0 0-2.318 1.907q-.894 1.232-1.087 2.898l-.724 7.824q-.146 1.787.483 3.188a4.8 4.8 0 0 0 1.956 2.197q1.328.797 3.308.797 1.376 0 2.559-.386a6.2 6.2 0 0 0 2.053-1.111 5.1 5.1 0 0 0 1.376-1.787h12.171q-.966 3.864-3.55 6.713-2.56 2.825-6.544 4.395-3.96 1.545-9.128 1.545" fill="url(#g)"/></g></g><defs><filter id="a" x="49.224" y="7.2" width="45.677" height="47.2" filterUnits="userSpaceOnUse" color-interpolation-filters="sRGB"><feFlood flood-opacity="0" result="BackgroundImageFix"/><feColorMatrix in="SourceAlpha" values="0 0 0 0 0 0 0 0 0 0 0 0 0 0 0 0 0 0 127 0" result="hardAlpha"/><feOffset dy="3.2"/><feGaussianBlur stdDeviation="1.6"/><feComposite in2="hardAlpha" operator="out"/><feColorMatrix values="0 0 0 0 0 0 0 0 0 0 0 0 0 0 0 0 0 0 0.25 0"/><feBlend in2="BackgroundImageFix" result="effect1_dropShadow_13718_56818"/><feBlend in="SourceGraphic" in2="effect1_dropShadow_13718_56818" result="shape"/></filter><filter id="b" x="198.501" y="7.2" width="45.677" height="47.2" filterUnits="userSpaceOnUse" color-interpolation-filters="sRGB"><feFlood flood-opacity="0" result="BackgroundImageFix"/><feColorMatrix in="SourceAlpha" values="0 0 0 0 0 0 0 0 0 0 0 0 0 0 0 0 0 0 127 0" result="hardAlpha"/><feOffset dy="3.2"/><feGaussianBlur stdDeviation="1.6"/><feComposite in2="hardAlpha" operator="out"/><feColorMatrix values="0 0 0 0 0 0 0 0 0 0 0 0 0 0 0 0 0 0 0.25 0"/><feBlend in2="BackgroundImageFix" result="effect1_dropShadow_13718_56818"/><feBlend in="SourceGraphic" in2="effect1_dropShadow_13718_56818" result="shape"/></filter><filter id="c" x="72.501" y="0" width="148.4" height="42.4" filterUnits="userSpaceOnUse" color-interpolation-filters="sRGB"><feFlood flood-opacity="0" result="BackgroundImageFix"/><feColorMatrix in="SourceAlpha" values="0 0 0 0 0 0 0 0 0 0 0 0 0 0 0 0 0 0 127 0" result="hardAlpha"/><feOffset dy="3.2"/><feGaussianBlur stdDeviation="1.6"/><feComposite in2="hardAlpha" operator="out"/><feColorMatrix values="0 0 0 0 0 0 0 0 0 0 0 0 0 0 0 0 0 0 0.25 0"/><feBlend in2="BackgroundImageFix" result="effect1_dropShadow_13718_56818"/><feBlend in="SourceGraphic" in2="effect1_dropShadow_13718_56818" result="shape"/></filter><filter id="d" x="0" y="25" width="293" height="108" filterUnits="userSpaceOnUse" color-interpolation-filters="sRGB"><feFlood flood-opacity="0" result="BackgroundImageFix"/><feColorMatrix in="SourceAlpha" values="0 0 0 0 0 0 0 0 0 0 0 0 0 0 0 0 0 0 127 0" result="hardAlpha"/><feOffset dy="4"/><feGaussianBlur stdDeviation="2"/><feComposite in2="hardAlpha" operator="out"/><feColorMatrix values="0 0 0 0 0 0 0 0 0 0 0 0 0 0 0 0 0 0 0.25 0"/><feBlend in2="BackgroundImageFix" result="effect1_dropShadow_13718_56818"/><feBlend in="SourceGraphic" in2="effect1_dropShadow_13718_56818" result="shape"/></filter><filter id="f" x="27.777" y="45.131" width="238.238" height="60.284" filterUnits="userSpaceOnUse" color-interpolation-filters="sRGB"><feFlood flood-opacity="0" result="BackgroundImageFix"/><feColorMatrix in="SourceAlpha" values="0 0 0 0 0 0 0 0 0 0 0 0 0 0 0 0 0 0 127 0" result="hardAlpha"/><feOffset/><feGaussianBlur stdDeviation="1.5"/><feComposite in2="hardAlpha" operator="out"/><feColorMatrix values="0 0 0 0 0.133198 0 0 0 0 0.998986 0 0 0 0 0 0 0 0 0.5 0"/><feBlend in2="BackgroundImageFix" result="effect1_dropShadow_13718_56818"/><feBlend in="SourceGraphic" in2="effect1_dropShadow_13718_56818" result="shape"/></filter><linearGradient id="e" x1="284.015" y1="118.466" x2="68.501" y2="-35.881" gradientUnits="userSpaceOnUse"><stop stop-color="#27272A"/><stop offset=".351" stop-color="#14532D"/><stop offset=".498" stop-color="#5DDF6C"/><stop offset=".646" stop-color="#14532D"/><stop offset="1" stop-color="#35353B"/></linearGradient><linearGradient id="g" x1="146.5" y1="41" x2="146.5" y2="109" gradientUnits="userSpaceOnUse"><stop stop-color="#EDFD79"/><stop offset="1" stop-color="#01FF5D"/></linearGradient></defs></svg>