<svg width="80" height="80" fill="none" xmlns="http://www.w3.org/2000/svg"><rect width="80" height="80" rx="14.546" fill="#172554"/><path d="M34.546 26.667c-7.364 0-13.334 5.97-13.334 13.333a13.32 13.32 0 0 0 5.714 10.943 1.667 1.667 0 1 0 1.907-2.734A9.99 9.99 0 0 1 24.546 40c0-5.523 4.477-10 10-10 4.125 0 7.67 2.498 9.198 6.07a1.667 1.667 0 0 0 2.053.928 6.667 6.667 0 0 1 4.748 12.448 1.667 1.667 0 0 0 1.335 3.055c3.528-1.542 6-5.064 6-9.167 0-5.523-4.478-10-10-10q-.871.002-1.703.144a13.33 13.33 0 0 0-11.631-6.811" fill="#60A5FA"/><path d="M41.212 53.334a1.667 1.667 0 0 1-3.333 0v-5.977l-1.321 1.322a1.667 1.667 0 1 1-2.357-2.357l4.166-4.167c.651-.65 1.706-.65 2.357 0l4.167 4.167a1.667 1.667 0 1 1-2.357 2.357l-1.322-1.322z" fill="#60A5FA"/></svg>