<svg width="72" height="20" fill="none" xmlns="http://www.w3.org/2000/svg"><g clip-path="url(#a)"><path d="M14.756 6.28c-2.588 0-4.61 1.965-4.61 4.595s1.97 4.579 4.61 4.579 4.645-1.982 4.645-4.595c0-2.597-1.972-4.579-4.645-4.579m.017 7.278c-1.474 0-2.554-1.145-2.554-2.682 0-1.555 1.063-2.699 2.537-2.699 1.491 0 2.57 1.162 2.57 2.699s-1.079 2.682-2.553 2.682m5.193-5.279h1.286v7.005h2.056V6.45h-3.342zM4.969 8.177c1.08 0 1.937.666 2.263 1.656h2.177C9.014 7.715 7.266 6.28 4.987 6.28c-2.589 0-4.61 1.965-4.61 4.596s1.97 4.578 4.61 4.578c2.228 0 4.01-1.435 4.405-3.57h-2.16c-.309.99-1.166 1.674-2.246 1.674-1.491 0-2.536-1.145-2.536-2.682 0-1.555 1.029-2.7 2.52-2.7m54.075 1.845L57.535 9.8c-.72-.102-1.234-.342-1.234-.906 0-.615.67-.922 1.577-.922.994 0 1.629.427 1.766 1.127h1.988c-.223-1.776-1.594-2.818-3.702-2.818-2.177 0-3.617 1.11-3.617 2.682 0 1.503.943 2.375 2.845 2.648l1.508.222c.738.102 1.15.393 1.15.94 0 .7-.72.99-1.715.99-1.217 0-1.902-.495-2.005-1.247h-2.023c.19 1.726 1.543 2.938 4.01 2.938 2.246 0 3.737-1.025 3.737-2.785 0-1.571-1.08-2.391-2.776-2.647M22.28 2.812c-.754 0-1.32.547-1.32 1.298 0 .752.565 1.298 1.32 1.298.754 0 1.32-.546 1.32-1.298 0-.751-.566-1.298-1.32-1.298m30.182 6.663c0-1.913-1.165-3.194-3.633-3.194-2.331 0-3.633 1.179-3.891 2.99h2.04c.103-.7.651-1.281 1.817-1.281 1.045 0 1.56.46 1.56 1.025 0 .734-.943.922-2.109 1.042-1.577.17-3.53.717-3.53 2.767 0 1.59 1.182 2.614 3.068 2.614 1.474 0 2.4-.616 2.862-1.59.069.872.72 1.436 1.629 1.436h1.2v-1.828h-1.012zm-2.022 2.221c0 1.18-1.028 2.05-2.28 2.05-.771 0-1.423-.324-1.423-1.007 0-.872 1.046-1.11 2.006-1.213.925-.085 1.44-.29 1.697-.684zM39.522 6.28a3.59 3.59 0 0 0-2.794 1.281V2.727h-2.056v12.557h2.022v-1.162a3.57 3.57 0 0 0 2.828 1.332c2.468 0 4.337-1.947 4.337-4.578 0-2.63-1.903-4.596-4.337-4.596m-.308 7.278c-1.474 0-2.554-1.145-2.554-2.682s1.097-2.699 2.57-2.699c1.492 0 2.537 1.145 2.537 2.699 0 1.537-1.08 2.682-2.553 2.682M29.753 6.28c-1.337 0-2.212.547-2.726 1.316V6.45h-2.04v8.832h2.057v-4.8c0-1.35.857-2.306 2.125-2.306 1.183 0 1.92.836 1.92 2.05v5.057h2.056v-5.21c.001-2.222-1.147-3.794-3.393-3.794m41.871 4.306c0-2.528-1.851-4.305-4.336-4.305-2.64 0-4.577 1.982-4.577 4.595 0 2.75 2.074 4.578 4.61 4.578 2.144 0 3.823-1.264 4.251-3.058H69.43c-.309.786-1.063 1.23-2.075 1.23-1.32 0-2.314-.82-2.536-2.255h6.804zm-6.685-.684c.326-1.23 1.252-1.828 2.314-1.828 1.166 0 2.057.666 2.263 1.828z" fill="#71717A"/></g><defs><clipPath id="a"><rect width="71.818" height="20" fill="white" transform="translate(.09)"/></clipPath></defs></svg>