<svg width="49" height="48" fill="none" xmlns="http://www.w3.org/2000/svg"><path d="M7.592 37.782 8.5 36zm-.874-.874-1.782.908zm35.564 0L40.5 36zm-.874.874.908 1.782zm.874-26.69L40.5 12zm-.874-.874.908-1.782zm-34.69.874-1.782-.908zm.874-.874-.908-1.782zm18.175 14.746 1.266 1.548zm-2.533 0-1.267 1.548zM42.5 13.2h-2v21.6h4V13.2zM39.3 38v-2H9.7v4h29.6zM6.5 34.8h2V13.2h-4v21.6zM9.7 10v2h29.6V8H9.7zm0 28v-2c-.593 0-.918-.002-1.15-.02-.21-.018-.165-.039-.05.02l-.908 1.782-.908 1.782c.543.277 1.082.365 1.54.402.433.035.949.034 1.476.034zm-3.2-3.2h-2c0 .527-.002 1.043.034 1.477.037.457.125.996.402 1.539l1.782-.908L8.5 36c.059.115.038.16.02-.05-.018-.232-.02-.557-.02-1.15zm1.092 2.982L8.5 36l-1.782.908-1.782.908a4 4 0 0 0 1.748 1.748zM42.5 34.8h-2c0 .593-.002.918-.02 1.15-.018.21-.039.165.02.05l1.782.908 1.782.908c.277-.543.365-1.082.402-1.54.036-.433.034-.949.034-1.476zM39.3 38v2c.527 0 1.043.002 1.477-.034.457-.037.996-.125 1.539-.402l-.908-1.782L40.5 36c.115-.059.16-.038-.05-.02-.232.018-.557.02-1.15.02zm2.982-1.092L40.5 36l.908 1.782.908 1.782a4 4 0 0 0 1.748-1.748zM42.5 13.2h2c0-.527.002-1.043-.034-1.476-.037-.458-.125-.997-.402-1.54l-1.782.908L40.5 12c-.059-.115-.038-.16-.02.05.018.232.02.557.02 1.15zM39.3 10v2c.593 0 .918.002 1.15.02.21.018.165.039.05-.02l.908-1.782.908-1.782c-.543-.277-1.082-.365-1.54-.402C40.344 7.998 39.828 8 39.3 8zm2.982 1.092 1.782-.908a4 4 0 0 0-1.748-1.748l-.908 1.782L40.5 12zM6.5 13.2h2c0-.593.002-.918.02-1.15.018-.21.039-.165-.02-.05l-1.782-.908-1.782-.908c-.277.543-.365 1.082-.402 1.54-.036.433-.034.949-.034 1.476zM9.7 10V8c-.527 0-1.043-.002-1.476.034-.458.037-.997.125-1.54.402l.908 1.782L8.5 12c-.115.059-.16.038.05.02.232-.018.557-.02 1.15-.02zm-2.982 1.092L8.5 12l-.908-1.782-.908-1.782a4 4 0 0 0-1.748 1.748zm35.782.18-1.267-1.547L24.5 23.415l1.267 1.549 1.266 1.548L43.767 12.82zM23.234 24.965l1.266-1.548L7.766 9.725 6.5 11.273 5.234 12.82l16.733 13.69zm2.532 0L24.5 23.416l-1.267 1.548-1.266 1.548a4 4 0 0 0 5.066 0z" fill="#86EFAC"/></svg>