<svg xmlns="http://www.w3.org/2000/svg" width="20" height="20" fill="none"><path d="M5.195 16.088q.238-.572.436-1.162m6.389 2.575a24.7 24.7 0 0 0 1.018-3.817m3.37.693c.313-1.688.477-3.429.477-5.208a6.877 6.877 0 0 0-9.887-6.186m-4.28 9.646c.27-1.11.412-2.268.412-3.46 0-1.496.478-2.88 1.289-4.01m5.589 4.01A21.5 21.5 0 0 1 8.3 17.577m-1.982-5.4q.248-1.469.25-3.008a3.439 3.439 0 1 1 6.877 0q0 .795-.049 1.578" stroke="#FAFAFA" stroke-width="1.5" stroke-linecap="round" stroke-linejoin="round"/></svg>