<svg width="21" height="20" fill="none" xmlns="http://www.w3.org/2000/svg"><g clip-path="url(#a)"><path d="M10.5 3.958c1.475 0 2.796.509 3.838 1.5l2.854-2.854C15.458.992 13.196 0 10.5 0a10 10 0 0 0-8.933 5.508l3.325 2.58c.787-2.371 3-4.13 5.608-4.13" fill="#EA4335"/><path d="M20.075 10.23c0-.655-.062-1.288-.158-1.897H10.5v3.759h5.392a4.65 4.65 0 0 1-1.992 2.991l3.22 2.5c1.88-1.741 2.955-4.316 2.955-7.354" fill="#4285F4"/><path d="M4.888 11.913A6 6 0 0 1 4.57 10c0-.667.112-1.308.317-1.912l-3.325-2.58A9.96 9.96 0 0 0 .5 10c0 1.617.383 3.142 1.067 4.492z" fill="#FBBC05"/><path d="M10.5 20c2.7 0 4.97-.887 6.62-2.42l-3.22-2.5c-.896.603-2.05.958-3.4.958-2.608 0-4.82-1.759-5.612-4.13l-3.325 2.58C3.213 17.758 6.592 20 10.5 20" fill="#34A853"/></g><defs><clipPath id="a"><rect width="20" height="20" fill="white" transform="translate(.5)"/></clipPath></defs></svg>