<svg viewBox="0 0 34 66" xmlns="http://www.w3.org/2000/svg" fill-rule="evenodd" clip-rule="evenodd"><path d="M33.562 4v57.562c0 2.207-1.793 4-4 4H4c-2.208 0-4-1.793-4-4V4c0-2.208 1.792-4 4-4h25.561c2.208 0 4 1.792 4 4z" fill="#1b1d27" fill-opacity=".5"/><path d="M34.75 6.12v56.179c0 2.02-1.602 3.66-3.576 3.66H6.826c-1.974 0-3.576-1.64-3.576-3.66V6.12c0-2.02 1.602-3.661 3.576-3.661h24.348c1.974 0 3.576 1.641 3.576 3.661z" fill="none" stroke="#000" stroke-opacity=".1" stroke-width=".5" transform="matrix(1.0488 0 0 1.0244 -3.146 -2.263)"/><path d="M15.944 32.644v2.849h-.925V28.47h2.45q.931 0 1.584.605.663.607.663 1.481c0 .598-.22 1.091-.663 1.49q-.643.599-1.584.597zm0-3.309v2.45h1.544c.366 0 .674-.123.914-.363.247-.24.372-.53.372-.86a1.15 1.15 0 0 0-.372-.85q-.359-.374-.914-.373h-1.544zm6.189 1.194q1.024 0 1.617.535.591.537.592 1.467v2.962h-.881v-.667h-.038q-.571.824-1.526.823-.815 0-1.363-.47a1.5 1.5 0 0 1-.548-1.177q0-.746.578-1.184.579-.443 1.54-.441.824 0 1.352.296v-.207c0-.316-.125-.579-.38-.8a1.32 1.32 0 0 0-.895-.328q-.773-.002-1.223.64l-.813-.5q.672-.95 1.988-.95zm-1.194 3.488q-.001.353.308.588.305.233.717.234.584 0 1.04-.423.456-.42.457-.991-.432-.334-1.203-.334-.563.001-.939.263-.381.275-.38.663m8.427-3.333-3.08 6.92h-.952l1.145-2.42-2.031-4.5h1.005l1.463 3.45h.02l1.425-3.45z" fill="#fff" fill-rule="nonzero"/><path d="M12.268 32.076q-.001-.44-.077-.847H8.317v1.551l2.23.001c-.09.517-.38.956-.827 1.25v1.006h1.328c.775-.7 1.22-1.737 1.22-2.961" fill="#4285f4" fill-rule="nonzero"/><path d="M9.721 34.031c-.37.243-.846.385-1.403.385a2.46 2.46 0 0 1-2.315-1.661h-1.37v1.037a4.13 4.13 0 0 0 3.685 2.218c1.114 0 2.05-.357 2.731-.974z" fill="#34a853" fill-rule="nonzero"/><path d="M5.874 31.984q.002-.404.13-.77v-1.038h-1.37a3.9 3.9 0 0 0-.439 1.808c0 .65.159 1.264.439 1.808l1.37-1.037a2.4 2.4 0 0 1-.13-.77z" fill="#fabb05" fill-rule="nonzero"/><path d="M8.318 29.551c.608 0 1.153.205 1.583.605l1.176-1.149c-.715-.65-1.646-1.049-2.759-1.049a4.13 4.13 0 0 0-3.684 2.218l1.37 1.038a2.46 2.46 0 0 1 2.314-1.663" fill="#e94235" fill-rule="nonzero"/></svg>