<svg width="375" height="88" fill="none" xmlns="http://www.w3.org/2000/svg"><path d="m-11 76.342 2.07 1.418.92-1.418 1.611 1.89.92-2.362 2.301-.788.69.788 1.61.472.69-.472c.154.315.553.976.92 1.102.369.126 1.535.368 2.071.473l2.071 2.048 1.61-1.733.92-1.418h.92l2.992-2.048 1.84.315 1.61.473 2.761-.473 1.15.473 2.301-4.569v-2.048l1.15 1.26 3.451-1.26c.69-.21 2.117-.567 2.3-.315.185.252.537.84.69 1.103l5.292-2.836c.69-.21 2.163-.504 2.53 0 .369.504 1.075 2.1 1.381 2.836l1.38.473 1.15-1.26 2.761-.63h1.61l.921-.946 1.38.945c.614-.315 1.933-.945 2.301-.945.46 0 1.15-.473 1.61-.473.369 0 1.534-.945 2.071-1.418-.077-.682-.276-2.11-.46-2.363-.184-.252-.077-.945 0-1.26l2.76-1.418h2.991l1.61 2.048 2.992.63 2.76-.63.92 1.26 1.38-.63L70.21 65l1.15-1.102 1.841 2.52 1.61.945 1.61-2.678 3.222-1.417h1.84l.92 3.15.69-.945c.307.63.967 2.048 1.15 2.678.185.63.844-2.048 1.151-3.466h1.84l1.611 2.206 1.61-2.993h2.531l.69-.63 1.84 1.417 2.071 1.733.69.473.69-2.993 1.381-.63 1.38-1.26 1.381 1.26 1.84-1.26 2.301-1.734h2.3l1.611-1.103 1.84 1.103 2.301 1.733 2.99-1.102V59.17h2.301l1.38-1.26v-.63l1.381-.788 1.38-1.102 2.531 1.89h2.99v-.788c.691.263 2.301.788 3.221.788s2.071-.525 2.531-.788l1.61 1.418h2.991l1.84-1.418 2.531-.63 1.61 2.048 3.221 1.26c-.307-.525-.874-1.512-.69-1.26s1.457 2.416 2.071 3.466l1.15-1.418v-1.26h4.601l.92-3.623 2.071.787 1.15-2.678 4.141 1.26 2.531-2.363 2.3 1.576h.921l1.38 2.205v-3.15l2.53-2.206h2.301l2.071-1.575 2.3-1.26 1.15.472h4.372c.184 0 2.53-1.05 3.68-1.575v1.575c.077-.315.415-.85 1.151-.473.736.378 1.38.998 1.61 1.26l2.991-.787 2.07 2.363h2.761l2.301-44.11 2.99 7.719h3.681v-1.103l2.531 1.575 1.38-4.253 2.991.787 2.531-7.561.92 3.623 3.681 1.575 2.53-.945c.154-1.313.553-3.812.921-3.308s1.533 4.096 2.07 5.829c.844-.42 2.623-1.134 2.991-.63s1.534 1.575 2.071 2.048l1.15-2.994 1.38 2.994 2.071.63 2.3 3.623.69 1.89 2.761-6.143c.537.63 1.703 1.985 2.071 2.363s1.533 1.733 2.07 2.363l1.38-4.726 1.841-.63h1.15l1.151 4.883 1.84 1.89 1.38-3.78 4.141 2.993 1.611-1.103 2.3-6.301 1.381-3.309 2.76 1.418V5.765l.921 3.466 2.07-2.836 6.672-1.89 1.15-2.363 1.15 2.363 2.991-.945 1.611 2.205c.843-.893 2.576-2.772 2.76-3.15.23-.473 4.141-.946 4.141-.473 0 .472 1.841 4.253 2.071 4.253.184 0 1.917-1.26 2.76-1.89l2.761.788 1.38-2.679 3.681 5.83 3.451.787.92 3.15 1.841-2.677v5.67l1.84 2.207 1.841-.473 2.991-8.665 1.61 6.932h.92c1.105 0 1.841 2.1 2.071 3.15l.92 2.836 1.38 1.103 1.611-3.938c.153-.893.552-2.552.92-2.048s1.687 1.155 2.301 1.418l2.53-3.781.46 5.671.921 4.096h4.371l1.38-4.096 2.301-2.678 2.3-5.356c.767.21 2.347.63 2.531.63s.997 2.415 1.38 3.623v-4.253l2.301 2.835c1.073-1.365 3.266-3.97 3.451-3.466.23.63 2.99 7.405 2.99 8.035 0 .504 1.227 3.676 1.841 5.199l1.15-1.89v5.828l1.15 3.308.921-2.835 1.38 3.938 2.07 3.308 2.991-.787 1.611-4.569 1.38 1.418 1.61-1.418.46-5.671h3.451l1.151 2.52 1.61 1.26 1.84-2.362 4.372.472" stroke="#E77975" stroke-width="1.148"/><path d="M-8.93 77.76-11 76.342V88h398V26.875l-4.372-.472-1.84 2.363-1.61-1.26-1.151-2.521h-3.451l-.46 5.671-1.61 1.418-1.38-1.418-1.611 4.569-2.991.787-2.07-3.308-1.38-3.938-.921 2.835-1.15-3.308v-5.829l-1.15 1.89c-.614-1.522-1.841-4.694-1.841-5.198 0-.63-2.76-7.404-2.99-8.034-.185-.505-2.378 2.1-3.451 3.465l-2.301-2.835v4.253c-.383-1.208-1.196-3.623-1.38-3.623s-1.764-.42-2.531-.63l-2.3 5.356-2.301 2.678-1.38 4.096h-4.371l-.921-4.096-.46-5.671-2.53 3.78c-.614-.262-1.933-.913-2.301-1.417s-.767 1.155-.92 2.048l-1.611 3.938-1.38-1.103-.92-2.835c-.23-1.05-.966-3.151-2.071-3.151h-.92l-1.61-6.932-2.991 8.665-1.841.473-1.84-2.206V9.704l-1.841 2.678-.92-3.151-3.451-.788-3.681-5.829-1.38 2.679-2.761-.788c-.843.63-2.576 1.89-2.76 1.89-.23 0-2.071-3.78-2.071-4.253s-3.911 0-4.141.472c-.184.379-1.917 2.258-2.761 3.151l-1.61-2.205-2.991.945-1.15-2.363-1.15 2.363-6.672 1.89-2.07 2.836-.921-3.466v2.048l-2.76-1.418-1.381 3.309-2.3 6.301-1.611 1.103-4.141-2.993-1.38 3.78-1.84-1.89-1.151-4.883h-1.15l-1.841.63-1.38 4.726c-.537-.63-1.702-1.985-2.07-2.363s-1.534-1.733-2.071-2.363l-2.761 6.144-.69-1.89-2.3-3.624-2.071-.63-1.38-2.994-1.15 2.994c-.537-.473-1.703-1.544-2.071-2.048s-2.147.21-2.991.63c-.537-1.733-1.702-5.325-2.07-5.83-.368-.503-.767 1.996-.92 3.31l-2.531.944-3.681-1.575-.92-3.623-2.531 7.562-2.991-.788-1.38 4.253-2.531-1.575v1.103h-3.681l-2.99-7.72-2.301 44.111h-2.761l-2.07-2.363-2.991.788c-.23-.263-.874-.883-1.61-1.26-.736-.379-1.074.157-1.151.472v-1.575c-1.15.525-3.496 1.575-3.68 1.575h-4.372l-1.15-.473-2.3 1.26-2.071 1.576h-2.301l-2.53 2.206v3.15l-1.38-2.205h-.921l-2.3-1.576-2.531 2.363-4.141-1.26-1.15 2.678-2.071-.787-.92 3.623h-4.601v1.26l-1.15 1.418c-.614-1.05-1.887-3.214-2.071-3.466s.383.735.69 1.26l-3.221-1.26-1.61-2.048-2.531.63-1.84 1.418h-2.991l-1.61-1.418c-.46.263-1.611.788-2.531.788s-2.531-.525-3.221-.788v.788h-2.99l-2.531-1.89-1.38 1.102-1.381.788v.63l-1.38 1.26h-2.301v1.733l-2.99 1.103-2.301-1.733-1.84-1.103-1.611 1.103h-2.3l-2.301 1.733-1.84 1.26-1.381-1.26-1.38 1.26-1.38.63-.69 2.994-.69-.473-2.071-1.733-1.84-1.417-.691.63h-2.53l-1.611 2.993-1.61-2.206h-1.84c-.308 1.418-.967 4.096-1.151 3.466s-.844-2.048-1.15-2.678l-.69.945-.92-3.15h-1.841l-3.221 1.417-1.61 2.678-1.61-.945-1.841-2.52-1.15 1.102-2.301-2.363-1.38.63-.92-1.26-2.761.63-2.991-.63-1.61-2.048h-2.991l-2.761 1.418c-.077.315-.184 1.008 0 1.26s.383 1.68.46 2.363c-.537.473-1.702 1.418-2.07 1.418-.46 0-1.15.473-1.61.473-.369 0-1.688.63-2.302.945l-1.38-.945-.92.945h-1.61l-2.761.63-1.15 1.26-1.38-.472c-.308-.735-1.013-2.332-1.381-2.836s-1.84-.21-2.53 0l-5.292 2.836c-.154-.263-.506-.85-.69-1.103-.184-.252-1.61.105-2.3.315l-3.452 1.26-1.15-1.26v2.048l-2.3 4.569-1.15-.473-2.762.473-1.61-.473-1.84-.315-2.991 2.048h-.92l-.92 1.418-1.611 1.733-2.07-2.048c-.537-.105-1.703-.347-2.071-.473s-.767-.787-.92-1.102l-.69.472-1.61-.472-.691-.788-2.3.788-.92 2.363-1.611-1.89z" fill="url(#a)" fill-opacity=".5"/><defs><linearGradient id="a" x1="188" y1="1.946" x2="188" y2="88" gradientUnits="userSpaceOnUse"><stop stop-color="#E77975"/><stop offset="1" stop-color="#E77975" stop-opacity="0"/></linearGradient></defs></svg>