<svg width="200" height="200" fill="none" xmlns="http://www.w3.org/2000/svg"><path d="M99.782 18.452c22.714-22.714 59.541-22.714 82.255 0s22.714 59.541 0 82.255l-40.045 40.046-82.255-82.256z" fill="white"/><path opacity=".5" d="M136.366 22.186 133.177 6.16l5.102-1.283 5.74 25.004 7.653 1.282 4.465-.641 7.015 5.129-7.015-3.206-2.551.641 1.913 12.822 3.826 4.488-5.739-4.488-2.551-11.54-9.567-1.282-3.189-7.693-13.392 7.693-1.276 8.335c.85.855 1.276 3.205 1.276 5.77s-2.551 5.129-3.189 6.41l1.913-5.77c.51-1.538-.638-4.06-1.275-5.128l-14.669 7.693 14.031-10.899.638-6.41-10.205-2.565-8.928 5.129 8.928-7.052 11.48 1.923z" fill="#C3D4D1"/><path d="m59.736 58.5 82.256 82.256-40.046 40.046c-22.714 22.714-59.54 22.714-82.255 0-22.714-22.715-22.714-59.542 0-82.256z" fill="#E37B01"/><mask id="a" style="mask-type:alpha" maskUnits="userSpaceOnUse" x="2" y="58" width="140" height="141"><path d="m59.737 58.709 82.256 82.255-40.046 40.046c-22.714 22.714-59.54 22.714-82.255 0-22.714-22.715-22.714-59.541 0-82.256z" fill="#FBBD1A"/></mask><g mask="url(#a)"><g style="mix-blend-mode:screen"><path d="M87.88 107.27c-.825 1.152-2.347 1.54-3.395.866-1.047-.674-1.227-2.157-.401-3.308.826-1.152 2.348-1.54 3.395-.866s1.228 2.157.402 3.308" fill="url(#b)"/></g><g style="mix-blend-mode:screen"><path d="M53.28 85.88c-.827 1.15-2.35 1.538-3.397.864s-1.227-2.157-.401-3.308 2.348-1.539 3.396-.865c1.047.674 1.227 2.157.401 3.308" fill="url(#c)"/></g><g style="mix-blend-mode:screen"><path d="M52.312 193.305c-.826 1.151-2.47 1.46-3.667.69a2.42 2.42 0 0 1-.672-3.482c.826-1.152 2.47-1.461 3.667-.691a2.423 2.423 0 0 1 .672 3.483" fill="url(#d)"/></g><g style="mix-blend-mode:screen"><path d="M88.848 197.64c-.826 1.152-2.47 1.461-3.667.691a2.423 2.423 0 0 1-.672-3.483c.826-1.151 2.47-1.46 3.667-.69 1.2.785 1.498 2.331.672 3.482" fill="url(#e)"/></g><g style="mix-blend-mode:screen"><path d="M23.422 78.867c-.826 1.152-2.47 1.461-3.667.691a2.423 2.423 0 0 1-.673-3.483c.826-1.15 2.47-1.46 3.667-.69 1.2.785 1.499 2.331.673 3.482" fill="url(#f)"/></g><path d="M117.602 116.322c-4.071-9.198-16.218-11.015-22.93-18.176-1.471-1.554-2.67-3.362-3.865-5.132-2.943-4.387-6.154-9.071-9.115-13.48-.138-.204-.272-.38-.387-.57-.088-.128 2.089-.917 2.285-.952a7 7 0 0 1 2.707-.01c1.58.292 2.767 1.449 4.174 2.14 3.037 1.525 6.475 2.762 10.318 1.963 3.932-.822 7.537-3.624 10.955-6.234 2.902-2.209 6.057-4.577 9.429-5.49 4.726-1.26 8.571 2.528 9.781 6.283.197.61.357 1.293.103 1.952-.044.141-.134.29-.207.403-.468.754-1.369 1.238-2.203 1.336-.954.128-1.83-.159-2.695-.438.257-1.98-.743-3.794-2.411-4.438-2.873-1.097-5.653 1.145-7.854 3.51-1.793 1.921-3.628 3.878-5.005 6.093-1.306 2.137-2.659 5.36-1.902 7.456.477 1.263 1.481 2.391 2.082 3.582a43 43 0 0 1 1.799 3.875c1.092 2.66 1.987 5.425 2.81 8.234.012.017.011.052.028.063.714 2.587 1.049 5.645 2.103 8.03" fill="#342316"/><path d="M115.479 108.317c-.652-.678-1.292-1.34-1.942-2.009-2.087-2.147-4.185-4.346-5.345-7.183-.762-1.84-1.13-3.9-2.145-5.58-.829-1.339-2.097-2.575-1.785-4.358.229-1.328 1.306-2.512 2.311-3.573a955 955 0 0 0 5.1-5.317c1.576-1.64 3.18-3.299 4.982-4.643 1.824-1.329 3.939-2.328 5.985-2.414 1.805-.09 3.467.586 4.547 1.79.981 1.15 1.57 3.048 1.525 4.744-.021.21-.037.414-.092.593-.954.128-1.83-.159-2.695-.438.257-1.98-.743-3.794-2.411-4.438-2.873-1.097-5.653 1.145-7.854 3.51-1.793 1.921-3.628 3.878-5.006 6.093-1.305 2.137-2.658 5.36-1.901 7.456.477 1.263 1.481 2.391 2.082 3.582a43 43 0 0 1 1.799 3.875c1.092 2.66 1.987 5.426 2.81 8.234.023.024.022.059.035.076" fill="#342316"/><path d="M130.827 79.027c-.52-1.872-1.149-3.51-2.431-4.943-1.376-1.529-3.274-2.589-5.508-2.65-3.746-.14-7.613 2.45-10.855 5.2-3.259 2.73-6.467 5.84-10.286 7.263-4.578 1.666-9.123.566-12.98-1.12-2.378-1.039-4.657-2.272-7.082-3.234-.138-.204-.272-.38-.387-.57-.088-.128 2.089-.918 2.285-.953a7 7 0 0 1 2.707-.01c1.58.293 2.766 1.45 4.174 2.14 3.037 1.525 6.475 2.763 10.318 1.964 3.932-.822 7.537-3.624 10.955-6.234 2.902-2.209 6.057-4.577 9.429-5.491 4.725-1.259 8.571 2.529 9.781 6.284.197.609.357 1.293.103 1.952a2.3 2.3 0 0 1-.223.402" fill="#D50000"/><path opacity=".1" d="M75.987 73.371S58.984 53.146 19.46 75.474c0 0 16.117-7.614 30.298-6.715 0 0-11.22 2.614-23.302 11.02 0 0 23.904-14.216 39.94-4.57z" fill="white"/><path opacity=".43" d="M-9.43 119.76c5.436-16.667 15.189-26.418 15.189-26.418C-9.367 106.67-14.91 121.41-14.91 121.41c-.918 3.807-.016 6.631.978 8.396a109 109 0 0 0-1.781 4.932l11.615-2.78 61.799-59.507S13.277 75.869-9.43 119.76" fill="#BF360C"/><path d="M17.775 76.683s-33.932 20.045-30.892 54.482l8.105-.086-.862 24.007s-14.621-9.013-13.382-23.786c1.243-14.78 7.472-38.016 37.031-54.617" fill="#BF360C"/><path d="M66.11 143.128c-23.913 24.363-51.188 36.41-65.829 22.119-20.366-19.878-10.625-49.256 15.07-71.66 26.46-23.072 57.57-28.075 72.63-13.382 10.783 10.531 2.042 38.56-21.87 62.923" fill="url(#g)"/><path opacity=".1" d="M89.369 86.899s-11.25-20.762-45.895-7.557c0 0 30.498-7.426 41.06 12.482z" fill="white"/><path d="M61.359 138.491c-23.913 24.363-29.984 57.104-16.048 70.699 18.294 17.847 53.614 3.236 70.655-23.939 18.439-29.405 23.141-52.916 8.082-67.61-10.793-10.528-38.775-3.504-62.69 20.85" fill="url(#h)"/><path d="M119.752 176.197s-19.373 34.256-53.964 31.96l-.089-8.083-24.05 1.375s9.347 14.38 24.138 12.83c14.79-1.549 37.958-8.257 53.965-38.082" fill="#BF360C"/><path d="M52.094 129.445c-23.913 24.363-31.555 55.565-20.772 66.096 20.367 19.878 49.618 9.532 71.531-16.556 22.563-26.868 26.917-57.986 11.858-72.68-10.789-10.534-38.708-1.217-62.617 23.14" fill="url(#i)"/><path opacity=".1" d="M107.974 105.053s21.056 10.767 8.564 45.588c0 0 6.786-30.564-13.399-40.663z" fill="white"/><path d="M80.806 155.954c-23.913 24.363-53.068 34.575-65.124 22.814-12.056-11.76-2.437-41.047 21.471-65.404C61.067 89 90.221 78.789 102.277 90.549s2.442 41.042-21.471 65.405" fill="url(#j)"/></g><path opacity=".3" d="M181.942 18.361c22.469 22.74 21.425 60.352-2.4 84.178l-75.762 75.762c-23.91 23.909-61.706 24.878-84.42 2.164-9.509-9.509-14.864-21.661-16.127-34.331a52 52 0 0 0 11.406 16.669c21.136 20.753 55.639 19.909 77.064-1.886l70.09-71.304c21.425-21.796 21.659-56.288.524-77.042A52.1 52.1 0 0 0 146.585 1.95c12.838 1.143 25.262 6.493 35.049 16.103q.155.154.308.31" fill="#E1E9E7"/><path d="M182.044 18.466c23.174 23.175 23.175 60.748.001 83.923l-79.132 79.131-.546.539c-23.215 22.634-60.383 22.454-83.377-.539s-23.173-60.162-.538-83.377l.538-.545 79.132-79.132c23.174-23.174 60.747-23.174 83.922 0M61.075 66.336 24.402 103.01c-20.186 20.185-20.186 52.912 0 73.098s52.913 20.186 73.1.001l36.673-36.674zm115.557-42.458c-20.186-20.186-52.913-20.186-73.098 0L66.487 60.925l73.099 73.099 37.047-37.047c20.185-20.186 20.185-52.914-.001-73.1" fill="#2A1C32"/><g filter="url(#k)"><path d="m105.367 129.885-23.025 7.589c3.11 3.993 10.356 12.47 14.463 14.432 5.132 2.452 11.059-13.715 11.264-17.905.164-3.353-1.733-4.141-2.702-4.116" fill="#7F3832"/></g><path d="m87.134 137.897 9.462 8.875c3.693-2.601 5.491-10.086 5.929-13.503z" fill="url(#l)"/><g filter="url(#m)"><path d="M69.984 98.485 65.44 122.3c-4.362-2.567-13.706-8.655-16.183-12.472-3.096-4.772 12.167-12.743 16.296-13.489 3.303-.597 4.33 1.183 4.431 2.147" fill="#7F3832"/></g><path d="m64.397 117.602-10.026-8.233c2.102-3.999 9.29-6.751 12.623-7.627z" fill="url(#n)"/><g filter="url(#o)"><path d="M69.198 130.923c.987-.442 2.041.467 1.75 1.508l-2.794 9.98a1.275 1.275 0 0 1-2.061.623l-6.665-5.744a1.275 1.275 0 0 1 .312-2.13z" fill="#7F3832"/></g><path d="m68.88 133.065-2.153 7.69-5.135-4.426z" fill="url(#p)"/><g filter="url(#q)"><path d="M42.7 133.002c-6.349-13.613-7.402-21.682-7.136-24.015-10.937 18.574-6.45 37.394-2.84 44.482l7.017-1.801 1.287 1.96-3.126 6.907c.45 1.344 7.12 6.079 10.398 8.279l5.808-4.137 1.791 1.414-.644 6.249c15.43 5.492 33.302-3.342 40.309-8.446-6.7 2.154-18.812-2.251-24.031-4.722-.117-.068-1.815.457-7.677 3.097l-2.687-2.12 1.773-6.667c-2.814-1-10.667-9.072-14.242-12.983l-6.294 2.082-2.031-2.766z" fill="#7F3832"/></g><path d="M40.646 133.097c-1.157-.449-4.504-9.271-6.032-13.626-4.459 11.45.7 31.799 2.355 31.361 1.323-.351 3.922-.49 5.057-.515l2.453 3.244-2.508 4.56c.072 1.162 5.036 4.822 7.508 6.507l4.873-2.767 3.415 1.75-.662 5.074c6.808 2.349 21.432.926 29.113-2.822-2.326.664-11.187-2.797-15.327-4.611l-7.254 3.576-4.478-3.534 1.476-7.118c-2.34-.277-9.442-7.864-12.7-11.622l-6.57 2.155a817 817 0 0 0-3.173-4.175c-.575-.745 1.397-5.269 2.454-7.437" fill="url(#r)"/><defs><filter id="k" x="82.342" y="129.884" width="25.737" height="22.273" filterUnits="userSpaceOnUse" color-interpolation-filters="sRGB"><feFlood flood-opacity="0" result="BackgroundImageFix"/><feBlend in="SourceGraphic" in2="BackgroundImageFix" result="shape"/><feColorMatrix in="SourceAlpha" values="0 0 0 0 0 0 0 0 0 0 0 0 0 0 0 0 0 0 127 0" result="hardAlpha"/><feOffset/><feGaussianBlur stdDeviation="2.168"/><feComposite in2="hardAlpha" operator="arithmetic" k2="-1" k3="1"/><feColorMatrix values="0 0 0 0 0.203922 0 0 0 0 0.12549 0 0 0 0 0.231373 0 0 0 1 0"/><feBlend in2="shape" result="effect1_innerShadow_263_108"/></filter><filter id="m" x="48.846" y="96.218" width="21.138" height="26.08" filterUnits="userSpaceOnUse" color-interpolation-filters="sRGB"><feFlood flood-opacity="0" result="BackgroundImageFix"/><feBlend in="SourceGraphic" in2="BackgroundImageFix" result="shape"/><feColorMatrix in="SourceAlpha" values="0 0 0 0 0 0 0 0 0 0 0 0 0 0 0 0 0 0 127 0" result="hardAlpha"/><feOffset/><feGaussianBlur stdDeviation="2.168"/><feComposite in2="hardAlpha" operator="arithmetic" k2="-1" k3="1"/><feColorMatrix values="0 0 0 0 0.203922 0 0 0 0 0.12549 0 0 0 0 0.231373 0 0 0 1 0"/><feBlend in2="shape" result="effect1_innerShadow_263_108"/></filter><filter id="o" x="58.985" y="130.809" width="12.012" height="12.535" filterUnits="userSpaceOnUse" color-interpolation-filters="sRGB"><feFlood flood-opacity="0" result="BackgroundImageFix"/><feBlend in="SourceGraphic" in2="BackgroundImageFix" result="shape"/><feColorMatrix in="SourceAlpha" values="0 0 0 0 0 0 0 0 0 0 0 0 0 0 0 0 0 0 127 0" result="hardAlpha"/><feOffset/><feGaussianBlur stdDeviation="2.168"/><feComposite in2="hardAlpha" operator="arithmetic" k2="-1" k3="1"/><feColorMatrix values="0 0 0 0 0.203922 0 0 0 0 0.12549 0 0 0 0 0.231373 0 0 0 1 0"/><feBlend in2="shape" result="effect1_innerShadow_263_108"/></filter><filter id="q" x="28.671" y="108.987" width="66.893" height="65.09" filterUnits="userSpaceOnUse" color-interpolation-filters="sRGB"><feFlood flood-opacity="0" result="BackgroundImageFix"/><feBlend in="SourceGraphic" in2="BackgroundImageFix" result="shape"/><feColorMatrix in="SourceAlpha" values="0 0 0 0 0 0 0 0 0 0 0 0 0 0 0 0 0 0 127 0" result="hardAlpha"/><feOffset/><feGaussianBlur stdDeviation="2.168"/><feComposite in2="hardAlpha" operator="arithmetic" k2="-1" k3="1"/><feColorMatrix values="0 0 0 0 0.203922 0 0 0 0 0.12549 0 0 0 0 0.231373 0 0 0 1 0"/><feBlend in2="shape" result="effect1_innerShadow_263_108"/></filter><radialGradient id="b" cx="0" cy="0" r="1" gradientTransform="matrix(1.89648 1.22011 -1.49546 2.08431 85.984 106.053)" gradientUnits="userSpaceOnUse"><stop offset=".04" stop-color="white"/><stop offset=".087" stop-color="#CECECE" stop-opacity=".895"/><stop offset=".145" stop-color="#989898" stop-opacity=".764"/><stop offset=".204" stop-color="#6A6A6A" stop-opacity=".632"/><stop offset=".263" stop-color="#434343" stop-opacity=".5"/><stop offset=".32" stop-color="#262626" stop-opacity=".371"/><stop offset=".377" stop-color="#111111" stop-opacity=".243"/><stop offset=".432" stop-color="#040404" stop-opacity=".118"/><stop offset=".485" stop-opacity="0"/></radialGradient><radialGradient id="c" cx="0" cy="0" r="1" gradientTransform="matrix(1.89648 1.22011 -1.49546 2.08431 51.381 84.656)" gradientUnits="userSpaceOnUse"><stop offset=".04" stop-color="white"/><stop offset=".087" stop-color="#CECECE" stop-opacity=".895"/><stop offset=".145" stop-color="#989898" stop-opacity=".764"/><stop offset=".204" stop-color="#6A6A6A" stop-opacity=".632"/><stop offset=".263" stop-color="#434343" stop-opacity=".5"/><stop offset=".32" stop-color="#262626" stop-opacity=".371"/><stop offset=".377" stop-color="#111111" stop-opacity=".243"/><stop offset=".432" stop-color="#040404" stop-opacity=".118"/><stop offset=".485" stop-opacity="0"/></radialGradient><radialGradient id="d" cx="0" cy="0" r="1" gradientTransform="matrix(2.16741 1.39441 -1.49546 2.08431 50.145 191.91)" gradientUnits="userSpaceOnUse"><stop offset=".04" stop-color="white"/><stop offset=".087" stop-color="#CECECE" stop-opacity=".895"/><stop offset=".145" stop-color="#989898" stop-opacity=".764"/><stop offset=".204" stop-color="#6A6A6A" stop-opacity=".632"/><stop offset=".263" stop-color="#434343" stop-opacity=".5"/><stop offset=".32" stop-color="#262626" stop-opacity=".371"/><stop offset=".377" stop-color="#111111" stop-opacity=".243"/><stop offset=".432" stop-color="#040404" stop-opacity=".118"/><stop offset=".485" stop-opacity="0"/></radialGradient><radialGradient id="e" cx="0" cy="0" r="1" gradientTransform="matrix(2.16741 1.39441 -1.49546 2.08431 86.683 196.25)" gradientUnits="userSpaceOnUse"><stop offset=".04" stop-color="white"/><stop offset=".087" stop-color="#CECECE" stop-opacity=".895"/><stop offset=".145" stop-color="#989898" stop-opacity=".764"/><stop offset=".204" stop-color="#6A6A6A" stop-opacity=".632"/><stop offset=".263" stop-color="#434343" stop-opacity=".5"/><stop offset=".32" stop-color="#262626" stop-opacity=".371"/><stop offset=".377" stop-color="#111111" stop-opacity=".243"/><stop offset=".432" stop-color="#040404" stop-opacity=".118"/><stop offset=".485" stop-opacity="0"/></radialGradient><radialGradient id="f" cx="0" cy="0" r="1" gradientTransform="matrix(2.16741 1.39441 -1.49546 2.08431 21.255 77.478)" gradientUnits="userSpaceOnUse"><stop offset=".04" stop-color="white"/><stop offset=".087" stop-color="#CECECE" stop-opacity=".895"/><stop offset=".145" stop-color="#989898" stop-opacity=".764"/><stop offset=".204" stop-color="#6A6A6A" stop-opacity=".632"/><stop offset=".263" stop-color="#434343" stop-opacity=".5"/><stop offset=".32" stop-color="#262626" stop-opacity=".371"/><stop offset=".377" stop-color="#111111" stop-opacity=".243"/><stop offset=".432" stop-color="#040404" stop-opacity=".118"/><stop offset=".485" stop-opacity="0"/></radialGradient><linearGradient id="g" x1="89.124" y1="68.83" x2="-.588" y2="160.759" gradientUnits="userSpaceOnUse"><stop stop-color="#FFC100"/><stop offset=".995" stop-color="#D04C02"/></linearGradient><linearGradient id="h" x1="169.353" y1="80.868" x2="47.267" y2="205.972" gradientUnits="userSpaceOnUse"><stop stop-color="#FFC100"/><stop offset=".995" stop-color="#D04C02"/></linearGradient><linearGradient id="i" x1="126.097" y1="104.912" x2="36.385" y2="196.84" gradientUnits="userSpaceOnUse"><stop stop-color="#FFC100"/><stop offset=".995" stop-color="#D04C02"/></linearGradient><linearGradient id="j" x1="96.576" y1="96.357" x2="23.947" y2="170.781" gradientUnits="userSpaceOnUse"><stop stop-color="#FFC100"/><stop offset=".995" stop-color="#D04C02"/></linearGradient><linearGradient id="l" x1="101.208" y1="138.192" x2="86.157" y2="138.19" gradientUnits="userSpaceOnUse"><stop stop-color="#FACB5D"/><stop offset="1" stop-color="#FCE5A2"/></linearGradient><linearGradient id="n" x1="62.282" y1="103.684" x2="64.233" y2="118.609" gradientUnits="userSpaceOnUse"><stop stop-color="#FACB5D"/><stop offset="1" stop-color="#FCE5A2"/></linearGradient><linearGradient id="p" x1="68.505" y1="134.863" x2="64.469" y2="143.05" gradientUnits="userSpaceOnUse"><stop stop-color="#FACB5D"/><stop offset="1" stop-color="#FCE5A2"/></linearGradient><linearGradient id="r" x1="69.045" y1="134.056" x2="66.804" y2="176.291" gradientUnits="userSpaceOnUse"><stop stop-color="#FACB5D"/><stop offset="1" stop-color="#FCE5A2"/></linearGradient></defs></svg>