<svg width="132" height="34" fill="none" xmlns="http://www.w3.org/2000/svg"><rect width="132" height="34" rx="9.182" fill="#30212A"/><path fill-rule="evenodd" clip-rule="evenodd" d="M20.536 11.816a15 15 0 0 0-1.902-1.632 16 16 0 0 0-1.481-.925l-2.505 3.579-1.023-1.024-.53.53c-1.639 1.639-2.47 3.91-2.47 5.627 0 3.587 2.835 6.53 6.375 6.53s6.375-2.943 6.375-6.53c0-2.645-1.467-4.755-2.84-6.155M17 23c1.087 0 1.969-1.006 1.969-2.247 0-1.836-1.969-3.003-1.969-3.003s-1.969 1.167-1.969 3.003c0 1.24.882 2.247 1.969 2.247" fill="#F87171"/><path d="M33.119 22V11.818h1.536v4.425h5.076v-4.425h1.541V22h-1.541v-4.44h-5.076V22zm13.627.154q-1.073 0-1.874-.492a3.3 3.3 0 0 1-1.243-1.377q-.442-.886-.442-2.068 0-1.189.442-2.078a3.3 3.3 0 0 1 1.243-1.383q.801-.492 1.874-.492 1.074 0 1.875.492.8.494 1.243 1.383.442.889.442 2.078 0 1.183-.442 2.068a3.3 3.3 0 0 1-1.243 1.377q-.801.492-1.875.492m.005-1.248q.697 0 1.154-.368.457-.367.676-.98.224-.61.224-1.346 0-.732-.224-1.343a2.2 2.2 0 0 0-.676-.989q-.458-.373-1.154-.373-.7 0-1.163.373a2.2 2.2 0 0 0-.681.99 4 4 0 0 0-.219 1.342q0 .736.219 1.347.224.612.681.98.462.367 1.163.367m8.92-6.542v1.193h-4.172v-1.193zm-3.053-1.83h1.486v7.224q0 .432.13.651.129.214.332.293.21.075.453.075.18 0 .313-.025.135-.024.209-.04l.268 1.228a2.5 2.5 0 0 1-.368.1q-.239.054-.596.06a2.6 2.6 0 0 1-1.094-.21 1.9 1.9 0 0 1-.82-.675q-.314-.457-.313-1.149zm8.401 1.83v1.193h-4.171v-1.193zm-3.052-1.83h1.486v7.224q0 .432.13.651.13.214.332.293.21.075.453.075.18 0 .313-.025.135-.024.209-.04l.268 1.228a2.5 2.5 0 0 1-.368.1q-.239.054-.596.06a2.6 2.6 0 0 1-1.094-.21 1.88 1.88 0 0 1-.82-.675q-.314-.457-.313-1.149zm8.046 9.62q-1.129 0-1.944-.482a3.27 3.27 0 0 1-1.253-1.367q-.438-.885-.438-2.073 0-1.174.438-2.069a3.4 3.4 0 0 1 1.233-1.397q.795-.502 1.86-.502.646 0 1.252.214t1.089.671.76 1.188q.279.726.279 1.765v.527h-6.07v-1.113h4.613q0-.587-.238-1.04a1.8 1.8 0 0 0-.672-.72 1.88 1.88 0 0 0-1.004-.264 1.94 1.94 0 0 0-1.094.308 2.07 2.07 0 0 0-.715.796 2.3 2.3 0 0 0-.25 1.059v.87q0 .766.27 1.302.273.538.76.82.487.28 1.139.28.422 0 .77-.12.348-.125.602-.368.254-.244.387-.602l1.407.254a2.55 2.55 0 0 1-.606 1.089 2.94 2.94 0 0 1-1.089.72q-.651.255-1.486.254M76.8 16.228l-1.347.239a1.6 1.6 0 0 0-.268-.493 1.3 1.3 0 0 0-.487-.382q-.309-.15-.771-.15-.631 0-1.054.284-.423.278-.423.72 0 .383.284.617t.915.383l1.213.278q1.053.244 1.57.751t.518 1.318q0 .686-.398 1.223-.393.532-1.099.835-.7.303-1.626.303-1.282 0-2.093-.547-.81-.552-.994-1.566l1.437-.219q.134.562.552.85.417.285 1.088.284.731 0 1.169-.303.437-.309.437-.751a.78.78 0 0 0-.268-.602q-.264-.244-.81-.367l-1.293-.284q-1.07-.243-1.581-.775-.507-.532-.507-1.348 0-.676.378-1.183t1.044-.79q.666-.29 1.526-.289 1.238 0 1.949.537.71.532.94 1.427m5.489-1.864v1.193h-4.171v-1.193zm-3.053-1.83h1.487v7.224q0 .432.129.651.129.214.333.293.21.075.452.075.18 0 .314-.025.135-.024.208-.04l.269 1.228a2.5 2.5 0 0 1-.368.1q-.24.054-.597.06a2.6 2.6 0 0 1-1.093-.21 1.88 1.88 0 0 1-.82-.675q-.314-.457-.314-1.149zm11.899 9.62q-1.11 0-1.91-.502a3.33 3.33 0 0 1-1.222-1.397q-.428-.89-.428-2.038 0-1.164.438-2.054a3.35 3.35 0 0 1 1.233-1.397q.795-.502 1.874-.502.87 0 1.551.323.68.319 1.099.895.422.577.502 1.348h-1.447a1.74 1.74 0 0 0-.547-.925q-.423-.388-1.133-.388-.621 0-1.09.328-.461.324-.72.925-.258.596-.258 1.412 0 .835.253 1.442.255.606.716.94.467.332 1.099.332.422 0 .765-.154.348-.16.582-.452.24-.294.333-.706h1.447a2.8 2.8 0 0 1-.482 1.322 2.8 2.8 0 0 1-1.08.915q-.67.333-1.575.333m8.083 0q-1.074 0-1.874-.492a3.3 3.3 0 0 1-1.243-1.377q-.443-.886-.443-2.068 0-1.189.443-2.078a3.3 3.3 0 0 1 1.243-1.383q.8-.492 1.874-.492t1.874.492a3.3 3.3 0 0 1 1.243 1.383q.443.889.443 2.078 0 1.183-.443 2.068a3.3 3.3 0 0 1-1.243 1.377q-.8.492-1.874.492m.005-1.248q.697 0 1.153-.368.458-.367.677-.98.223-.61.223-1.346 0-.732-.223-1.343a2.2 2.2 0 0 0-.677-.989q-.457-.373-1.153-.373-.7 0-1.163.373a2.2 2.2 0 0 0-.681.99 4 4 0 0 0-.22 1.342q0 .736.22 1.347.224.612.68.98.463.367 1.164.367M104.577 22v-7.636h1.487V22zm.751-8.815a.94.94 0 0 1-.666-.258.84.84 0 0 1-.274-.627q0-.368.274-.626a.93.93 0 0 1 .666-.263q.387 0 .661.263a.82.82 0 0 1 .278.626q0 .363-.278.627a.93.93 0 0 1-.661.258m4.362 4.28V22h-1.487v-7.636h1.427v1.242h.095q.262-.606.825-.974.566-.368 1.427-.368.78 0 1.367.328a2.2 2.2 0 0 1 .91.965q.323.64.323 1.586V22h-1.487v-4.678q0-.83-.432-1.298-.433-.472-1.188-.472a1.86 1.86 0 0 0-.92.224q-.398.223-.631.656-.23.428-.229 1.034m12.743-1.237-1.347.239a1.6 1.6 0 0 0-.269-.493 1.3 1.3 0 0 0-.487-.382q-.308-.15-.771-.15-.631 0-1.054.284-.422.278-.422.72 0 .383.283.617t.915.383l1.213.278q1.054.244 1.571.751t.517 1.318q0 .686-.398 1.223-.393.532-1.098.835-.702.303-1.626.303-1.283 0-2.093-.547-.81-.552-.995-1.566l1.437-.219q.135.562.552.85.418.285 1.089.284.731 0 1.168-.303.438-.309.438-.751a.78.78 0 0 0-.269-.602q-.263-.244-.81-.367l-1.293-.284q-1.068-.243-1.581-.775-.507-.532-.507-1.348 0-.676.378-1.183t1.044-.79q.666-.29 1.526-.289 1.238 0 1.949.537.71.532.94 1.427" fill="#F8FAFC"/></svg>