<svg width="48" height="48" fill="none" xmlns="http://www.w3.org/2000/svg"><rect width="48" height="48" rx="24" fill="url(#a)"/><path d="M31.517 9.594H16.485c-4.153 0-7.53 3.377-7.53 7.53v13.752c0 4.153 3.377 7.53 7.53 7.53h15.032c4.153 0 7.53-3.377 7.53-7.53V17.124c0-4.153-3.377-7.53-7.53-7.53m-19.907 7.53a4.88 4.88 0 0 1 4.875-4.874h15.032a4.88 4.88 0 0 1 4.874 4.874v13.752a4.88 4.88 0 0 1-4.874 4.874H16.485a4.88 4.88 0 0 1-4.875-4.874z" fill="white"/><path d="M24 31.006A7.013 7.013 0 0 0 31.005 24 7.013 7.013 0 0 0 24 16.995a7.013 7.013 0 0 0-7.005 7.006A7.013 7.013 0 0 0 24 31.006m0-11.353A4.35 4.35 0 0 1 28.348 24 4.35 4.35 0 0 1 24 28.348a4.35 4.35 0 0 1-4.348-4.347A4.35 4.35 0 0 1 24 19.653M31.655 18.126a1.89 1.89 0 0 0 1.888-1.888 1.89 1.89 0 0 0-1.888-1.888 1.89 1.89 0 0 0-1.888 1.888 1.89 1.89 0 0 0 1.888 1.888" fill="white"/><defs><linearGradient id="a" x1="7.029" y1="40.971" x2="40.97" y2="7.029" gradientUnits="userSpaceOnUse"><stop stop-color="#FAAD4F"/><stop offset=".35" stop-color="#DD2A7B"/><stop offset=".62" stop-color="#9537B0"/><stop offset="1" stop-color="#515BD4"/></linearGradient></defs></svg>