<svg width="135" height="34" fill="none" xmlns="http://www.w3.org/2000/svg"><rect width="135" height="34" rx="9.182" fill="#312929"/><path d="M18.499 8.413 9.667 19.94h5.832V25.6L24.324 14H18.5z" fill="#FB923C"/><path d="M34.655 11.818V22h-1.536V11.818zm3.744 5.648V22h-1.486v-7.636h1.427v1.242h.094q.263-.606.825-.974.567-.368 1.427-.368.78 0 1.367.328.588.323.91.965.323.64.323 1.586V22H41.8v-4.678q0-.83-.433-1.298-.432-.472-1.188-.472-.517 0-.92.224a1.6 1.6 0 0 0-.631.656q-.23.428-.229 1.034m12.743-1.238-1.347.239a1.6 1.6 0 0 0-.269-.493 1.3 1.3 0 0 0-.487-.382q-.308-.15-.77-.15-.632 0-1.054.284-.423.278-.423.72 0 .383.283.617.284.234.915.383l1.213.278q1.055.244 1.571.751.517.507.517 1.318 0 .686-.397 1.223-.392.532-1.1.835-.7.303-1.625.303-1.283 0-2.093-.547-.81-.552-.994-1.566l1.437-.219q.134.562.552.85.416.285 1.088.284.731 0 1.169-.303.437-.309.437-.751a.78.78 0 0 0-.268-.602q-.264-.244-.81-.367l-1.293-.284q-1.07-.243-1.581-.775-.507-.532-.507-1.348 0-.676.377-1.183.378-.507 1.044-.79.667-.29 1.527-.289 1.238 0 1.949.537.71.532.94 1.427m5.488-1.864v1.193h-4.17v-1.193zm-3.052-1.83h1.486v7.224q0 .432.13.651.129.214.333.293.209.075.452.075.18 0 .313-.025.135-.024.21-.04l.268 1.228a2.5 2.5 0 0 1-.368.1q-.24.054-.597.06a2.6 2.6 0 0 1-1.094-.21 1.88 1.88 0 0 1-.82-.675q-.313-.457-.313-1.149zm7.06 9.635a3.1 3.1 0 0 1-1.313-.268 2.2 2.2 0 0 1-.93-.79q-.339-.518-.338-1.269 0-.645.248-1.064.249-.417.672-.66.422-.244.944-.369a9 9 0 0 1 1.064-.189l1.114-.129q.427-.054.621-.174.195-.12.194-.388v-.035q0-.65-.368-1.009-.363-.357-1.084-.358-.75 0-1.183.333-.427.33-.592.731l-1.396-.318q.248-.696.725-1.124a2.94 2.94 0 0 1 1.109-.626 4.3 4.3 0 0 1 1.318-.199q.457 0 .969.11.517.104.964.387.453.285.741.81.288.523.288 1.358V22h-1.451v-1.044h-.06q-.144.288-.432.567-.29.278-.741.462-.453.184-1.084.184m.322-1.193q.616 0 1.054-.244.443-.243.671-.636.234-.398.234-.85v-.985q-.08.08-.308.15a5 5 0 0 1-.512.114q-.289.045-.562.084l-.457.06a3.7 3.7 0 0 0-.791.184q-.353.129-.567.373-.209.238-.209.636 0 .552.408.835.408.279 1.04.279m7.052-3.51V22h-1.487v-7.636h1.427v1.242h.095q.263-.606.825-.974.566-.368 1.427-.368.78 0 1.367.328.587.323.91.965.323.64.323 1.586V22h-1.487v-4.678q0-.83-.432-1.298-.432-.472-1.188-.472a1.86 1.86 0 0 0-.92.224q-.398.223-.631.656-.23.428-.229 1.034m10.585-3.102v1.193h-4.17v-1.193zm-3.052-1.83h1.486v7.224q0 .432.13.651.129.214.333.293.209.075.452.075.18 0 .313-.025.135-.024.209-.04l.269 1.228a2.5 2.5 0 0 1-.368.1q-.24.054-.597.06a2.6 2.6 0 0 1-1.094-.21 1.88 1.88 0 0 1-.82-.675q-.313-.457-.313-1.149zm12.246 1.83v1.193h-4.17v-1.193zm-3.052-1.83h1.486v7.224q0 .432.13.651.129.214.333.293.209.075.452.075.18 0 .313-.025.135-.024.21-.04l.267 1.228a2.5 2.5 0 0 1-.367.1 3 3 0 0 1-.597.06 2.6 2.6 0 0 1-1.094-.21 1.88 1.88 0 0 1-.82-.675q-.313-.457-.313-1.149zM89.576 22v-7.636h1.437v1.213h.079q.21-.616.736-.97a2.1 2.1 0 0 1 1.203-.358 6 6 0 0 1 .631.035v1.422a3 3 0 0 0-.318-.055 3 3 0 0 0-.457-.034 1.94 1.94 0 0 0-.94.223 1.66 1.66 0 0 0-.885 1.497V22zm7.667.169a3.1 3.1 0 0 1-1.313-.268 2.2 2.2 0 0 1-.93-.79q-.338-.518-.338-1.269 0-.645.249-1.064.25-.417.671-.66.423-.244.945-.369a9 9 0 0 1 1.064-.189l1.113-.129q.428-.054.622-.174t.194-.388v-.035q0-.65-.368-1.009-.363-.357-1.084-.358-.75 0-1.183.333-.428.33-.592.731l-1.397-.318q.249-.696.726-1.124a2.94 2.94 0 0 1 1.109-.626 4.3 4.3 0 0 1 1.317-.199q.457 0 .97.11.517.104.964.387.453.285.741.81.288.523.288 1.358V22h-1.452v-1.044h-.06q-.143.288-.432.567-.288.278-.74.462-.453.184-1.084.184m.323-1.193q.615 0 1.054-.244.442-.243.671-.636a1.65 1.65 0 0 0 .234-.85v-.985q-.08.08-.309.15-.224.064-.512.114-.289.045-.561.084l-.458.06a3.7 3.7 0 0 0-.79.184q-.354.129-.567.373-.21.238-.209.636 0 .552.408.835.408.279 1.039.279m8.424 1.173a2.96 2.96 0 0 1-1.651-.472q-.72-.477-1.133-1.357-.408-.885-.408-2.123t.413-2.118q.417-.88 1.143-1.348a2.98 2.98 0 0 1 1.646-.467q.711 0 1.143.239.438.234.676.547.245.313.378.552h.09v-3.784h1.486V22h-1.452v-1.188h-.124a4 4 0 0 1-.388.557 2.1 2.1 0 0 1-.686.547q-.437.233-1.133.233m.328-1.268q.641 0 1.084-.338.447-.342.676-.95.233-.606.233-1.411 0-.795-.228-1.392-.229-.597-.671-.93t-1.094-.333q-.671 0-1.119.348a2.13 2.13 0 0 0-.676.95 3.9 3.9 0 0 0-.224 1.357q0 .766.229 1.377.23.611.676.97.453.352 1.114.352m9.008 1.273q-1.128 0-1.944-.482a3.27 3.27 0 0 1-1.253-1.367q-.437-.885-.437-2.073 0-1.174.437-2.069a3.4 3.4 0 0 1 1.233-1.397q.795-.502 1.86-.502.646 0 1.252.214.608.214 1.089.671.483.458.761 1.188.278.726.278 1.765v.527h-6.07v-1.113h4.614q0-.587-.239-1.04a1.8 1.8 0 0 0-.671-.72 1.9 1.9 0 0 0-1.005-.264q-.626 0-1.093.308a2.07 2.07 0 0 0-.716.796 2.3 2.3 0 0 0-.249 1.059v.87q0 .766.269 1.302.273.538.76.82.488.28 1.139.28.422 0 .77-.12.348-.125.602-.368.253-.244.388-.602l1.407.254a2.55 2.55 0 0 1-.607 1.089 2.9 2.9 0 0 1-1.089.72q-.65.255-1.486.254m10.788-5.926-1.347.239a1.6 1.6 0 0 0-.269-.493 1.3 1.3 0 0 0-.487-.382q-.308-.15-.771-.15-.631 0-1.054.284-.422.278-.422.72 0 .383.283.617.284.234.915.383l1.213.278q1.054.244 1.571.751t.517 1.318q0 .686-.398 1.223-.393.532-1.098.835-.702.303-1.626.303-1.283 0-2.093-.547-.81-.552-.995-1.566l1.437-.219q.135.562.552.85.418.285 1.089.284.731 0 1.168-.303.438-.309.438-.751a.78.78 0 0 0-.269-.602q-.263-.244-.81-.367l-1.293-.284q-1.068-.243-1.581-.775-.507-.532-.507-1.348 0-.676.378-1.183t1.044-.79q.666-.29 1.526-.289 1.238 0 1.949.537.71.532.94 1.427" fill="#F8FAFC"/></svg>