<svg width="32" height="32" fill="none" xmlns="http://www.w3.org/2000/svg"><path d="M27 23.574A3.426 3.426 0 0 1 23.574 27H8.398A3.4 3.4 0 0 1 5 23.602V8.276A3.276 3.276 0 0 1 8.276 5h15.448A3.276 3.276 0 0 1 27 8.275z" fill="#FFB92A"/><path d="m12.664 12.922-.963.215v.782l-.545.123-.01.845.546-.122-.004 2.196c0 .732.476 1.091 1.027.963.198-.044.343-.09.583-.204l-.002-.794c-.103.04-.194.068-.307.093-.29.065-.335-.095-.34-.353l.005-2.117.687-.155.01-.845-.687.154zM15.114 13.08c-1.465.328-1.743 1.92-1.564 2.989.164.975.762 1.545 1.75 1.324 1.102-.248 1.452-1.062 1.557-1.71l-1.01.227c-.076.293-.209.557-.606.646-.434.098-.645-.236-.717-.665-.014-.085-.012-.159-.012-.248l2.36-.53c.02-.238.022-.482-.033-.81-.139-.826-.644-1.466-1.725-1.223m-.594 1.824c.04-.551.258-.924.699-1.023.426-.096.62.177.679.528.008.047.018.11.015.182zM18.246 13.212a7 7 0 0 0-.032-.755l-.929.208v4.2l.963-.216.008-1.743c.004-.917.328-1.384.999-1.543v-1.108c-.637.143-.852.419-1.008.957M25.183 13.667c-.073.43-.256.674-.575.745-.346.078-.599-.125-.704-.685-.122-.645-.066-1.826.614-1.978.431-.097.584.2.65.51l.934-.21c-.047-.524-.52-1.383-1.709-1.116-1.358.305-1.692 1.896-1.471 3.063.183.964.784 1.453 1.711 1.245 1.083-.243 1.46-.984 1.513-1.791zM22.512 14.885v-1.992c.006-1.096-.735-1.36-1.627-1.16-1.14.256-1.434.908-1.447 1.584l.984-.221c.041-.212.065-.503.525-.607.517-.116.587.258.594.564l.014.252c-.28.071-.53.115-.825.19-.823.21-1.626.754-1.414 1.874.09.474.5.966 1.222.804.679-.152.867-.486 1.003-.776.03.135.096.326.163.447l.966-.218.005-.002s-.063-.077-.102-.24a4 4 0 0 1-.061-.499m-.974-.833c-.011.448-.07 1.077-.734 1.226-.312.07-.48-.079-.524-.312-.065-.342.11-.584.63-.798.188-.066.39-.128.63-.182zM8.012 24.597a.25.25 0 0 1-.25-.25l.025-.493.026-.539-.283.057c-.211.043-.429.088-.556.11a.3.3 0 0 1-.05.004H6.91a.25.25 0 0 1-.237-.334l.118-.327-1.161-.938-.033-.028-.012-.012a.25.25 0 0 1 .058-.412l.16-.075-.195-.595q-.006-.021-.013-.047l-.005-.017a.25.25 0 0 1 .292-.309l.611.13.095-.224a.248.248 0 0 1 .434-.044l.016.025.16.172-.119-.613-.036-.19-.018-.091a.25.25 0 0 1 .36-.267l.02.01.038.02.253.146.352-.69.02-.038.01-.017a.25.25 0 0 1 .436 0l.01.017.02.038.353.69.252-.145.039-.02.019-.01a.249.249 0 0 1 .36.266l-.054.282-.12.612.16-.172.017-.024a.249.249 0 0 1 .434.044l.095.224.611-.13a.25.25 0 0 1 .292.309l-.005.017-.014.048-.194.595.16.075a.248.248 0 0 1 .058.412l-.012.01-.033.03-1.161.938.118.326a.25.25 0 0 1-.234.334h-.018a.3.3 0 0 1-.05-.004c-.127-.023-.345-.067-.556-.11l-.283-.057c.007.142.017.362.027.54l.024.493a.25.25 0 0 1-.25.249z" fill="#161617"/><path d="m8.293 18.84.026.047.414.81c.027.053.053.078.09.078q.03-.001.076-.026l.37-.214c.013-.008.027-.015.05-.026l-.055.28-.222 1.145c-.01.047.008.086.045.106a.1.1 0 0 0 .041.011.1.1 0 0 0 .071-.033l.022-.024.518-.555c.01-.01.017-.025.031-.044l.135.318c.025.057.048.08.092.08a.2.2 0 0 0 .048-.007l.216-.046.496-.104-.014.052-.228.699c-.027.082-.012.116.067.153q.125.06.257.12l-.038.034-1.224.989c-.064.051-.07.073-.042.15l.146.403h-.024c-.25-.044-.89-.18-1.023-.2l-.026-.003c-.073 0-.091.057-.09.142.001.046.058 1.155.058 1.172h-.567c0-.017.056-1.126.057-1.172.002-.085-.016-.142-.09-.142l-.026.003c-.132.02-.772.156-1.023.2h-.024l.146-.402c.028-.078.022-.1-.041-.151l-1.225-.99-.038-.033.257-.12c.08-.037.094-.07.067-.153l-.227-.699-.014-.052.495.105.216.045a.2.2 0 0 0 .049.006c.044 0 .067-.022.09-.079l.136-.318c.013.02.02.033.03.044l.52.555.021.024a.1.1 0 0 0 .071.033.1.1 0 0 0 .041-.01c.038-.02.055-.06.046-.107L7.32 19.79l-.054-.28.05.025.37.214q.045.026.076.026c.036 0 .063-.025.09-.077l.413-.81q.01-.021.027-.049m0-.498a.5.5 0 0 0-.435.258l-.009.014-.025.048-.21.412-.023.044-.026-.014-.05-.027-.017-.009a.496.496 0 0 0-.72.535l.018.093.037.189.002.013h-.02q-.025 0-.05.002a.5.5 0 0 0-.408.3l-.015.035-.023-.005-.387-.082a.497.497 0 0 0-.583.617l.003.015.018.062.126.388a.5.5 0 0 0-.078.804l.01.009.044.037q.51.412 1.023.827l-.01.03-.048.13a.498.498 0 0 0 .464.667h.022a1 1 0 0 0 .095-.008c.122-.022.328-.063.53-.104l-.01.22-.025.505c0 .275.223.498.498.498h.567a.5.5 0 0 0 .498-.498l-.024-.506-.01-.22c.202.042.407.083.532.105q.044.008.093.008h.021a.497.497 0 0 0 .464-.668l-.046-.13-.011-.03 1.023-.826.043-.037.01-.01a.498.498 0 0 0-.078-.803l.127-.388.018-.062.004-.014a.5.5 0 0 0-.584-.618l-.388.082-.023.005-.014-.035a.5.5 0 0 0-.459-.302h-.02l.003-.013.037-.19.017-.092a.497.497 0 0 0-.72-.535l-.016.01-.05.026-.026.014-.023-.044-.21-.412-.026-.048-.008-.014a.5.5 0 0 0-.436-.258z" fill="#FFB92A"/><path d="M7.857 18.599a.498.498 0 0 1 .863-.014v-1.97c.007-.78.231-1.235.698-1.34.41-.093.564.213.558.685v2.547l.95-.214.007-2.54c.008-1.242-.493-1.632-1.215-1.47-.616.139-.994.832-.994.832v-.521l-.968.21v3.989zM7.076 13.563v5.59l-.998.224v-5.59z" fill="#161617"/></svg>