<svg width="49" height="48" fill="none" xmlns="http://www.w3.org/2000/svg"><path d="M42.1 19.75 40.54 21zm2.4 3L42.94 24zm0 2.5L42.94 24zm-2.4 3L40.54 27zm-5.6.75-.894 1.789A2 2 0 0 0 36.5 31zm-4-2 .894-1.789a2 2 0 0 0-1.788 0zm-4 2v2a2 2 0 0 0 .894-.211zm-5.972-10.963 1.605-1.194zm0 11.926-1.604-1.194zM15.5 24h-2a1 1 0 0 1 1-1v4a3 3 0 0 0 3-3zm-1 1v-2a1 1 0 0 1 1 1h-4a3 3 0 0 0 3 3zm-1-1h2a1 1 0 0 1-1 1v-4a3 3 0 0 0-3 3zm1-1v2a1 1 0 0 1-1-1h4a3 3 0 0 0-3-3zm-1 1v2h2v-4h-2zm1 10v-2a8 8 0 0 1-8-8h-4c0 6.627 5.373 12 12 12zm-10-10h2a8 8 0 0 1 8-8v-4c-6.627 0-12 5.373-12 12zm37.6-4.25L40.54 21l2.4 3 1.562-1.25 1.561-1.249-2.4-3zm2.4 5.5L42.94 24l-2.4 3 1.561 1.25 1.562 1.249 2.4-3zM40.54 29v-2H36.5v4h4.039zM36.5 29l.894-1.789-4-2L32.5 27l-.894 1.789 4 2zm-4-2-.894-1.789-4 2L28.5 29l.894 1.789 4-2zm-8.184-8v2h16.223v-4H24.316zM14.5 14v2a7.99 7.99 0 0 1 6.424 3.23l1.604-1.193 1.605-1.194A11.99 11.99 0 0 0 14.5 12zm14 15v-2h-4.184v4H28.5zm-5.972.963-1.604-1.194A7.99 7.99 0 0 1 14.5 32v4c3.947 0 7.45-1.908 9.633-4.843zM24.316 29v-2c-1.466 0-2.666.793-3.392 1.77l1.604 1.193 1.605 1.194a.5.5 0 0 1 .153-.142c.035-.02.044-.015.03-.015zm17.784-.75L40.54 27v4a4 4 0 0 0 3.123-1.501zM24.316 19v-2c.014 0 .005.005-.03-.015a.5.5 0 0 1-.153-.142l-1.605 1.194-1.604 1.194C21.65 20.207 22.85 21 24.316 21zM44.5 22.75 42.939 24l1.562 1.25 1.561 1.249a4 4 0 0 0 0-4.998zm-2.4-3 1.561-1.249A4 4 0 0 0 40.54 17v4z" fill="#22D3EE"/></svg>