<svg width="48" height="48" fill="none" xmlns="http://www.w3.org/2000/svg"><path d="M0 24C0 10.745 10.745 0 24 0s24 10.745 24 24-10.745 24-24 24S0 37.255 0 24" fill="#60A5FA"/><path d="M13.17 17.622c-.005.156-.005.323-.005.493v11.77c0 .274 0 .54.018.766.02.247.068.54.218.834.208.407.54.739.947.947.294.15.587.197.834.218.226.018.492.018.766.018h16.104c.274 0 .54 0 .766-.018.247-.02.54-.068.834-.218.407-.208.739-.54.947-.947a2.2 2.2 0 0 0 .218-.834c.018-.226.018-.492.018-.765V18.115q.001-.257-.004-.493l-9.459 7.739a2.17 2.17 0 0 1-2.744 0z" fill="white"/><path d="M33.81 15.657a2 2 0 0 0-.158-.089 2.2 2.2 0 0 0-.834-.218c-.226-.018-.492-.018-.766-.018H15.948c-.274 0-.54 0-.766.018a2.2 2.2 0 0 0-.834.218 2 2 0 0 0-.158.09L24 23.683z" fill="white"/></svg>