<svg xmlns="http://www.w3.org/2000/svg" xml:space="preserve" style="fill-rule:evenodd;clip-rule:evenodd" viewBox="0 0 72 34"><path d="M70-8v24.4c0 2.1-1.8 3.8-4 3.8H4c-2.2 0-4-1.7-4-3.8V-8c0-2 1.8-3.8 4-3.8h62c2.2 0 4 1.7 4 3.8" style="fill:#1b1d27;fill-opacity:.5" transform="matrix(1.02231 0 0 1.0488 0 12.4)"/><path d="M69.8-8v24.4c0 2-1.7 3.6-3.7 3.6H3.9C2 20 .3 18.4.3 16.4V-8c0-2 1.6-3.5 3.6-3.5h62.2c2 0 3.7 1.6 3.7 3.5Z" style="fill:none;stroke:#000;stroke-opacity:.1;stroke-width:.5px" transform="matrix(1.02231 0 0 1.0488 0 12.4)"/><path d="M32.8.3h4.4v7.9h-4.4z" style="fill:#ff5f00;fill-rule:nonzero" transform="matrix(1.02231 0 0 1.0488 0 12.4)"/><path d="M33 4.2c0-1.5.8-3 2-4a5 5 0 1 0 0 8 5 5 0 0 1-2-4" style="fill:#eb001b;fill-rule:nonzero" transform="matrix(1.02231 0 0 1.0488 0 12.4)"/><path d="M43 4.2a5 5 0 0 1-8 4 5 5 0 0 0 0-8 5 5 0 0 1 8 4" style="fill:#f79e1b;fill-rule:nonzero" transform="matrix(1.02231 0 0 1.0488 0 12.4)"/></svg>