<svg width="48" height="48" fill="none" xmlns="http://www.w3.org/2000/svg"><rect width="48" height="48" rx="8" fill="#1F00FF"/><path d="M32.587 14c5.583 0 10.107 4.485 10.107 10.018S38.17 34 32.587 34H15.29c-5.583 0-10.071-4.449-10.071-9.982S9.707 14 15.289 14zm-7.19 10.018c0 3.979 3.175 7.089 7.188 7.089 4.014 0 7.188-3.11 7.188-7.089 0-3.978-3.21-7.124-7.188-7.124s-7.188 3.183-7.188 7.124m-2.883 0c0-2.785 1.131-5.316 2.956-7.124h-1.533c-4.014 0-7.188 3.183-7.188 7.124 0 3.942 3.029 6.944 6.897 7.089h1.824a9.92 9.92 0 0 1-2.956-7.089m-14.412 0c0 3.942 3.175 7.089 7.188 7.089h1.532a9.93 9.93 0 0 1-2.955-7.089c0-2.785 1.13-5.316 2.955-7.124H15.29c-4.014 0-7.188 3.183-7.188 7.124" fill="#FAFAFA"/></svg>