<svg width="48" height="48" fill="none" xmlns="http://www.w3.org/2000/svg"><rect width="48" height="48" rx="24" fill="url(#a)"/><path d="M24 11.625c-3.68 0-7.209 1.213-9.811 3.371-2.602 2.16-4.064 5.087-4.064 8.14.003 1.986.626 3.937 1.807 5.664s2.88 3.171 4.934 4.192c-.547 1.22-1.367 2.363-2.426 3.383 2.054-.36 3.982-1.114 5.635-2.205 1.274.314 2.596.475 3.925.477 3.68 0 7.209-1.213 9.811-3.372s4.064-5.086 4.064-8.14c0-3.052-1.462-5.98-4.064-8.139S27.68 11.625 24 11.625" fill="white"/><defs><linearGradient id="a" x1="24.381" y1="44.814" x2="24.381" y2="5.957" gradientUnits="userSpaceOnUse"><stop stop-color="#0CBD2A"/><stop offset="1" stop-color="#5BF675"/></linearGradient></defs></svg>