<svg width="82" height="14" fill="none" xmlns="http://www.w3.org/2000/svg"><g clip-path="url(#a)"><mask id="b" style="mask-type:luminance" maskUnits="userSpaceOnUse" x="0" y="0" width="82" height="14"><path d="M81.667 0H0v14h81.667z" fill="white"/></mask><g mask="url(#b)"><path d="M78.38 1.716q.803-.548 1.683-.548.466 0 .725.068v1.46a3.7 3.7 0 0 0-.915-.104q-.725 0-1.32.472-.597.472-.941 1.424-.346.952-.346 2.343v3.38h-1.554V1.306h1.554V3.09q.31-.824 1.114-1.374M68.466 3.99a3.7 3.7 0 0 0-.24.78h5.092a2.9 2.9 0 0 0-.346-1.2 2.05 2.05 0 0 0-.828-.824q-.535-.292-1.26-.292-.847 0-1.468.395t-.95 1.14m2.418-2.823q1.26 0 2.192.566a3.76 3.76 0 0 1 1.425 1.528 4.4 4.4 0 0 1 .475 2.11q0 .31-.035.67h-6.793q.074 1.313.759 2.085.768.867 2.063.866.95 0 1.614-.428.665-.43.82-1.202h1.52a3.35 3.35 0 0 1-.717 1.622q-.561.678-1.398 1.021-.838.343-1.873.343-1.314 0-2.306-.618a4.1 4.1 0 0 1-1.519-1.664q-.528-1.047-.527-2.317 0-1.27.51-2.317t1.493-1.656c.656-.406 1.456-.609 2.296-.609m-7.982 7.405q.646-.403.993-1.132.345-.73.344-1.69 0-.96-.344-1.682a2.65 2.65 0 0 0-.985-1.124c-.426-.27-.932-.404-1.485-.404q-.828 0-1.476.404a2.62 2.62 0 0 0-.993 1.132c-.23.487-.345 1.033-.345 1.673q0 .961.345 1.69.345.73.993 1.133.648.404 1.476.403.83 0 1.477-.403m-1.287-7.405q1.313 0 2.27.592.96.593 1.46 1.631t.5 2.36q0 1.32-.509 2.36a3.9 3.9 0 0 1-1.484 1.638q-.977.6-2.288.6a3.7 3.7 0 0 1-1.624-.377q-.776-.378-1.209-.961v4.41h-1.553V1.306h1.553v1.269q.362-.618 1.166-1.012a3.84 3.84 0 0 1 1.718-.395m-8.298 0q.949 0 1.658.378h-.001q.708.377 1.088 1.072t.38 1.622v5.972h-1.554V4.565q0-.944-.51-1.493t-1.424-.55q-1.106.001-1.718.884-.613.884-.613 2.343v4.462h-1.57V4.565q0-.944-.502-1.493-.5-.55-1.416-.55-.724 0-1.251.412-.528.413-.803 1.142-.276.73-.277 1.673v4.462h-1.553V1.305h1.553v1.664q.345-.84 1.037-1.321.69-.48 1.64-.481 1.122 0 1.9.48t1.036 1.374q.378-.824 1.148-1.339a3.13 3.13 0 0 1 1.752-.515m-13.945 7.14q.708-.774.708-2.077v-.395l-2.676.412q-.846.137-1.27.515-.421.377-.422 1.012 0 .6.466.952.466.353 1.209.353 1.278 0 1.985-.773m2.245-.053q0 .396.155.55v.001q.156.154.466.154.139.001.276-.034v1.287q-.397.086-.707.086-.726 0-1.157-.37-.432-.367-.466-1.158-.345.72-1.157 1.15-.81.43-1.83.43-.899 0-1.588-.319a2.55 2.55 0 0 1-1.08-.892 2.3 2.3 0 0 1-.388-1.33q0-1.133.785-1.836.787-.704 2.236-.892l2.055-.275q.414-.051.63-.25.216-.195.216-.54 0-.669-.57-1.115c-.38-.297-.915-.446-1.536-.446q-.933 0-1.51.446-.58.446-.648 1.253h-1.554a3.2 3.2 0 0 1 .57-1.588 3.1 3.1 0 0 1 1.294-1.039c.541-.24 1.123-.36 1.848-.36q1.088 0 1.916.395.829.395 1.286 1.098t.458 1.613zm-8.938-7.087q.465 0 .725.069v1.46a3.7 3.7 0 0 0-.915-.104q-.724 0-1.32.472t-.942 1.424-.345 2.343v3.38h-1.554V1.306h1.554v1.784q.31-.823 1.113-1.373.804-.549 1.684-.549m-8.3 0q.932 0 1.658.395.724.395 1.14 1.106.413.713.413 1.64v5.903h-1.57V4.599q-.001-.892-.536-1.467t-1.45-.575q-.829 0-1.433.455t-.941 1.295q-.337.841-.337 1.991v3.913H19.77V1.305h1.553v1.647a3.8 3.8 0 0 1 1.295-1.304c.53-.32 1.14-.481 1.761-.481" fill="#A1A1AA"/><mask id="c" style="mask-type:alpha" maskUnits="userSpaceOnUse" x="-1" y="0" width="15" height="12"><path d="M-.582 0h13.708v1.75c-.875 0-3.5.758-3.5 3.792s2.334 3.791 3.5 3.791v1.75H-.582z" fill="#D9D9D9"/></mask><g mask="url(#c)"><path d="M9.73 1.167h3.51a4.874 4.874 0 0 1 4.877 4.877 4.874 4.874 0 0 1-4.876 4.876H9.729a4.874 4.874 0 0 1-4.876-4.876 4.875 4.875 0 0 1 4.876-4.877m6.988 4.877a3.48 3.48 0 0 0-3.477-3.477H9.729a3.478 3.478 0 0 0 0 6.953h3.512a3.48 3.48 0 0 0 3.477-3.476" fill="#A1A1AA"/></g><mask id="d" style="mask-type:alpha" maskUnits="userSpaceOnUse" x="-1" y="0" width="15" height="12"><path d="M-.582 0h13.708v1.75c-.875 0-3.5.758-3.5 3.792s2.334 3.791 3.5 3.791v1.75H-.582z" fill="#D9D9D9"/></mask><g mask="url(#d)"><path d="M5.533 1.167h3.512a4.88 4.88 0 0 1 4.876 4.877 4.874 4.874 0 0 1-4.876 4.876H5.533A4.874 4.874 0 0 1 .656 6.044a4.875 4.875 0 0 1 4.877-4.877m6.988 4.877a3.48 3.48 0 0 0-3.476-3.477H5.533a3.478 3.478 0 0 0 0 6.953h3.512a3.48 3.48 0 0 0 3.476-3.476" fill="#A1A1AA"/></g><path d="M9.057 6.044a4.874 4.874 0 0 1 4.876-4.877 4.875 4.875 0 0 1 4.877 4.877 4.875 4.875 0 0 1-4.877 4.876 4.874 4.874 0 0 1-4.876-4.876m8.353 0a3.478 3.478 0 0 0-6.953 0 3.478 3.478 0 0 0 6.953 0" fill="#A1A1AA"/></g></g><defs><clipPath id="a"><rect width="81.667" height="14" fill="white"/></clipPath></defs></svg>