<svg width="48" height="48" fill="none" xmlns="http://www.w3.org/2000/svg"><rect width="48" height="48" rx="8" fill="#085EFF"/><g clip-path="url(#a)"><path d="M25.303 16.568a6.327 6.327 0 1 0 12.655 0 6.327 6.327 0 0 0-12.655 0m-15.065 0a6.327 6.327 0 1 0 12.653 0 6.327 6.327 0 0 0-12.652 0m0 15.065a6.327 6.327 0 1 0 12.654 0 6.327 6.327 0 0 0-12.654 0m24.664 6.327a.48.48 0 0 1-.48-.48v-5.778c0-1.567-1.261-2.843-2.811-2.843S28.8 30.134 28.8 31.702v5.779a.48.48 0 0 1-.48.479h-2.556a.48.48 0 0 1-.48-.48v-5.778c0-3.532 2.834-6.396 6.328-6.396 3.493 0 6.327 2.864 6.327 6.396v5.779a.48.48 0 0 1-.48.479z" fill="white"/></g><defs><clipPath id="a"><rect width="28" height="28" fill="white" transform="translate(10 10)"/></clipPath></defs></svg>