<svg width="80" height="80" fill="none" xmlns="http://www.w3.org/2000/svg"><rect width="80" height="80" rx="14.546" fill="#052E16"/><path d="M39.546 41.667c-6.984 0-11.885 5.125-12.5 11.666h15.833m2.5-22.5a5.833 5.833 0 1 1-11.666 0 5.833 5.833 0 0 1 11.666 0" stroke="#86EFAC" stroke-width="3.333" stroke-linecap="round" stroke-linejoin="round"/><path fill-rule="evenodd" clip-rule="evenodd" d="M49.546 38.333a5 5 0 0 0-2.083 9.547v5.886c0 .253.115.492.312.65l1.25 1a.83.83 0 0 0 1.041 0l1.25-1a.83.83 0 0 0 .313-.65v-1.388l-1.25-1.128L51.63 50v-2.12a5 5 0 0 0-2.083-9.547m-1.667 5a1.667 1.667 0 1 1 3.334 0 1.667 1.667 0 0 1-3.334 0" fill="#86EFAC"/></svg>