<svg width="48" height="48" fill="none" xmlns="http://www.w3.org/2000/svg"><rect width="48" height="48" rx="24" fill="#1B1D27"/><path fill-rule="evenodd" clip-rule="evenodd" d="M21.562 29.193c-1.371 2.101-3.669 4.76-6.727 4.76-1.445 0-2.835-.594-2.835-3.179C12 24.191 20.988 14 29.327 14c4.744 0 6.634 3.291 6.634 7.03 0 4.797-3.113 10.283-6.208 10.283-.982 0-1.464-.54-1.464-1.395q0-.335.111-.725c-1.056 1.804-3.094 3.478-5.003 3.478-1.39 0-2.094-.874-2.094-2.102 0-.446.092-.91.26-1.376zm6.19-10.131c-.755.001-1.27.642-1.268 1.557s.519 1.573 1.273 1.572c.737-.002 1.252-.661 1.25-1.576s-.518-1.555-1.255-1.553m4.004-.005c-.755.002-1.27.643-1.268 1.558s.518 1.573 1.274 1.571c.736-.001 1.25-.66 1.249-1.576-.002-.915-.518-1.554-1.255-1.553" fill="#A9A0EE"/></svg>