<svg width="48" height="48" fill="none" xmlns="http://www.w3.org/2000/svg"><rect width="48" height="48" rx="8" fill="#A9A0EE"/><path fill-rule="evenodd" clip-rule="evenodd" d="M21.156 30.057c-1.6 2.452-4.28 5.555-7.848 5.555-1.686 0-3.308-.695-3.308-3.71 0-7.68 10.485-19.57 20.215-19.57 5.534 0 7.74 3.84 7.74 8.2 0 5.598-3.633 11.998-7.243 11.998-1.146 0-1.708-.629-1.708-1.626q0-.39.13-.847c-1.233 2.105-3.61 4.058-5.838 4.058-1.621 0-2.443-1.02-2.443-2.452 0-.521.108-1.063.303-1.606m7.221-11.82c-.88.002-1.48.75-1.479 1.818.002 1.067.605 1.834 1.486 1.833.86-.002 1.46-.771 1.457-1.839-.002-1.067-.604-1.813-1.464-1.812m4.672-.005c-.88.002-1.481.75-1.48 1.817.002 1.068.605 1.835 1.486 1.834.86-.002 1.46-.771 1.458-1.839-.002-1.067-.605-1.813-1.464-1.812" fill="white"/></svg>