<svg width="20" height="20" fill="none" xmlns="http://www.w3.org/2000/svg"><path d="M3.003 18.333c2.34 0 4.098-2.22 5.147-3.976a3.7 3.7 0 0 0-.198 1.15c0 1.025.539 1.755 1.602 1.755 1.46 0 3.02-1.398 3.828-2.905q-.085.326-.085.606c0 .714.369 1.165 1.12 1.165 2.368 0 4.75-4.582 4.75-8.59 0-3.122-1.446-5.871-5.076-5.871-6.38 0-13.257 8.512-13.257 14.01 0 2.16 1.063 2.656 2.17 2.656m8.89-11.137c0-.776.398-1.32.979-1.32.567 0 .964.544.964 1.32 0 .777-.397 1.336-.964 1.336-.581 0-.979-.559-.979-1.336m3.035 0c0-.776.397-1.32.978-1.32.567 0 .964.544.964 1.32 0 .777-.397 1.336-.964 1.336-.581 0-.978-.559-.978-1.336" fill="#F8FAFC"/></svg>