<svg width="375" height="672" fill="none" xmlns="http://www.w3.org/2000/svg"><path d="M375 672H0V0h375zM121 243.5c-14.636 0-26.5 11.864-26.5 26.5v22.167H97v88.666h-2.5V403c0 14.636 11.864 26.5 26.5 26.5h22.167V427h88.666v2.5H254c14.636 0 26.5-11.864 26.5-26.5v-22.167H278v-88.666h2.5V270c0-14.636-11.864-26.5-26.5-26.5h-22.167v2.5h-88.666v-2.5z" fill="url(#a)"/><path d="M94.5 403v-22.167h5V403c0 11.874 9.626 21.5 21.5 21.5h22.167v5H121c-14.636 0-26.5-11.864-26.5-26.5m181 0v-22.167h5V403c0 14.636-11.864 26.5-26.5 26.5h-22.167v-5H254c11.874 0 21.5-9.626 21.5-21.5m-181-133c0-14.636 11.864-26.5 26.5-26.5h22.167v5H121c-11.874 0-21.5 9.626-21.5 21.5v22.167h-5zm181 0c0-11.874-9.626-21.5-21.5-21.5h-22.167v-5H254c14.636 0 26.5 11.864 26.5 26.5v22.167h-5z" fill="#BBF7D0"/><defs><linearGradient id="a" x1="187.5" y1="0" x2="187.5" y2="672" gradientUnits="userSpaceOnUse"><stop stop-color="#18181B"/><stop offset=".197" stop-color="#18181B" stop-opacity=".65"/><stop offset=".49" stop-color="#18181B" stop-opacity=".4"/><stop offset=".803" stop-color="#18181B" stop-opacity=".65"/><stop offset="1" stop-color="#18181B"/></linearGradient></defs></svg>