<svg width="48" height="48" fill="none" xmlns="http://www.w3.org/2000/svg"><rect width="48" height="48" rx="24" fill="#18181B"/><g clip-path="url(#a)"><path d="M16.54 36h.53c.096 0 .193-.048.225-.128C21.29 25.696 25.64 20.656 28.37 17.639c.112-.129.064-.225-.097-.225h-4.879a.55.55 0 0 0-.45.224l-3.498 4.334c-.514.642-.642 1.236-.642 2.087v4.43c-1.14 3.194-1.862 5.36-2.392 7.318-.032.126.016.193.129.193m17.608-23.353c-.755-.803-4.157-.835-5.73-.225a3 3 0 0 0-.787.466 41 41 0 0 0-3.322 3.178c-.113.112-.064.224.096.224h5.41c.497 0 .786.29.786.787v6.099c0 .16.128.209.224.064l3.259-4.253c.53-.69.69-.9.834-1.862.193-1.412.08-3.58-.77-4.478m-6.982 16.179 2.23-3.676a.7.7 0 0 0 .065-.289V18.73c0-.16-.112-.225-.225-.096-3.354 3.74-5.97 7.672-8.394 12.407-.061.118.016.224.16.176l5.008-1.54c.565-.174.883-.402 1.156-.851" fill="#CCFF00"/></g><defs><clipPath id="a"><rect width="24" height="24" fill="white" transform="translate(12 12)"/></clipPath></defs></svg>