<svg width="124" height="34" fill="none" xmlns="http://www.w3.org/2000/svg"><rect width="124" height="34" rx="9.182" fill="#223238"/><path fill-rule="evenodd" clip-rule="evenodd" d="M17 9.5a5.48 5.48 0 0 0-5.474 5.207l-.142 2.848-1.134 2.268V21.5h3.075a3.751 3.751 0 0 0 7.35 0h3.075v-1.677l-1.134-2.268-.142-2.848A5.48 5.48 0 0 0 17 9.5M17 23c-.98 0-1.813-.626-2.122-1.5h4.244A2.25 2.25 0 0 1 17 23" fill="#5EEAD4"/><path d="M38.672 14.493a1.45 1.45 0 0 0-.656-1.094q-.578-.393-1.452-.393-.627 0-1.084.2-.458.194-.71.536a1.27 1.27 0 0 0-.25.77q0 .364.17.627.173.263.452.443.283.174.607.293.322.115.621.189l.994.258q.487.12 1 .324.512.203.95.537.436.333.705.825.274.491.274 1.178 0 .866-.448 1.536-.442.671-1.288 1.06-.84.387-2.033.387-1.143 0-1.979-.363-.834-.363-1.307-1.029-.472-.672-.522-1.59h1.541q.045.551.358.919.318.363.81.542.498.174 1.09.174.65 0 1.158-.204.512-.209.805-.577.293-.372.293-.87 0-.452-.258-.74a1.9 1.9 0 0 0-.691-.478 7 7 0 0 0-.98-.333l-1.203-.328q-1.222-.333-1.939-.98-.71-.645-.71-1.71 0-.879.477-1.536.477-.655 1.292-1.02.816-.367 1.84-.367 1.034 0 1.824.363.795.363 1.253 1 .458.63.477 1.45zM42.149 22v-7.636h1.427v1.242h.094q.24-.63.78-.984.543-.358 1.298-.358.766 0 1.283.358a2.1 2.1 0 0 1 .77.985h.08a2.15 2.15 0 0 1 .87-.975q.597-.368 1.422-.368 1.04 0 1.695.652.662.65.662 1.963V22h-1.487v-4.982q0-.775-.422-1.123a1.54 1.54 0 0 0-1.01-.348q-.725 0-1.128.447-.403.443-.403 1.139V22H46.6v-5.076q0-.62-.388-1-.388-.377-1.01-.377-.421 0-.78.224-.353.219-.572.611a1.9 1.9 0 0 0-.213.91V22zm14.735.169a3.1 3.1 0 0 1-1.312-.268 2.2 2.2 0 0 1-.93-.79q-.338-.518-.338-1.269 0-.645.249-1.064.249-.417.67-.66.424-.244.946-.369a9 9 0 0 1 1.063-.189l1.114-.129q.427-.054.622-.174.193-.12.193-.388v-.035q0-.65-.367-1.009-.363-.357-1.084-.358-.75 0-1.184.333-.427.33-.591.731l-1.397-.318q.249-.696.726-1.124a2.94 2.94 0 0 1 1.108-.626 4.3 4.3 0 0 1 1.318-.199q.457 0 .97.11.517.104.964.387.452.285.74.81.29.523.289 1.358V22H59.2v-1.044h-.06q-.144.288-.432.567t-.74.462-1.085.184m.324-1.193q.616 0 1.053-.244.443-.243.672-.636a1.65 1.65 0 0 0 .233-.85v-.985q-.079.08-.308.15-.224.064-.512.114-.288.045-.562.084l-.457.06a3.7 3.7 0 0 0-.79.184q-.354.129-.567.373-.21.238-.21.636 0 .552.409.835.407.279 1.039.279M62.773 22v-7.636h1.437v1.213h.08q.208-.616.735-.97a2.1 2.1 0 0 1 1.203-.358 6 6 0 0 1 .632.035v1.422a3 3 0 0 0-.319-.055 3 3 0 0 0-.457-.034 1.94 1.94 0 0 0-.94.223 1.66 1.66 0 0 0-.885 1.497V22zm9.529-7.636v1.193H68.13v-1.193zm-3.053-1.83h1.487v7.224q0 .432.129.651.129.214.333.293.21.075.452.075.18 0 .314-.025.135-.024.208-.04l.269 1.228a2.5 2.5 0 0 1-.368.1q-.24.054-.597.06a2.6 2.6 0 0 1-1.093-.21 1.88 1.88 0 0 1-.82-.675q-.314-.457-.314-1.149zm10.904 9.635a3.1 3.1 0 0 1-1.312-.268 2.2 2.2 0 0 1-.93-.79q-.338-.518-.338-1.269 0-.645.249-1.064.249-.417.67-.66.424-.244.945-.369a9 9 0 0 1 1.064-.189l1.114-.129q.427-.054.622-.174.193-.12.193-.388v-.035q0-.65-.368-1.009-.363-.357-1.083-.358-.75 0-1.184.333-.428.33-.591.731l-1.397-.318q.248-.696.726-1.124a2.94 2.94 0 0 1 1.108-.626 4.3 4.3 0 0 1 1.318-.199q.457 0 .97.11.516.104.964.387.452.285.74.81.29.523.289 1.358V22H82.47v-1.044h-.06q-.144.288-.432.567t-.74.462-1.085.184m.323-1.193q.618 0 1.055-.244.442-.243.67-.636a1.65 1.65 0 0 0 .234-.85v-.985q-.079.08-.308.15-.224.064-.512.114-.288.045-.562.084l-.457.06a3.7 3.7 0 0 0-.79.184q-.354.129-.567.373-.21.238-.21.636 0 .552.409.835.407.279 1.038.279m7.052-9.158V22h-1.486V11.818zm5.431 10.336q-1.128 0-1.944-.482a3.27 3.27 0 0 1-1.252-1.367q-.438-.885-.438-2.073 0-1.174.438-2.069a3.4 3.4 0 0 1 1.233-1.397q.795-.502 1.859-.502.645 0 1.253.214.606.214 1.088.671t.761 1.188q.279.726.279 1.765v.527h-6.07v-1.113h4.613q0-.587-.239-1.04a1.8 1.8 0 0 0-.67-.72 1.88 1.88 0 0 0-1.005-.264 1.94 1.94 0 0 0-1.094.308 2.07 2.07 0 0 0-.716.796 2.3 2.3 0 0 0-.248 1.059v.87q0 .766.268 1.302.273.538.76.82.488.28 1.14.28.421 0 .77-.12.348-.125.601-.368.255-.244.388-.602l1.407.254a2.55 2.55 0 0 1-.606 1.089 2.94 2.94 0 0 1-1.09.72q-.65.255-1.486.254M98.025 22v-7.636h1.437v1.213h.08q.208-.616.735-.97a2.1 2.1 0 0 1 1.203-.358 6 6 0 0 1 .632.035v1.422a3 3 0 0 0-.319-.055 3 3 0 0 0-.457-.034q-.527 0-.94.223a1.67 1.67 0 0 0-.885 1.497V22zm9.529-7.636v1.193h-4.171v-1.193zm-3.053-1.83h1.487v7.224q0 .432.129.651.129.214.333.293.209.075.452.075.18 0 .314-.025.134-.024.209-.04l.268 1.228a2.5 2.5 0 0 1-.368.1 3 3 0 0 1-.597.06 2.6 2.6 0 0 1-1.093-.21 1.9 1.9 0 0 1-.821-.675q-.312-.457-.313-1.149zm10.436 3.694-1.347.239a1.6 1.6 0 0 0-.268-.493 1.3 1.3 0 0 0-.488-.382q-.308-.15-.77-.15-.631 0-1.054.284-.423.278-.423.72 0 .383.284.617.283.234.914.383l1.213.278q1.055.244 1.571.751.518.507.518 1.318 0 .686-.398 1.223-.393.532-1.099.835-.7.303-1.626.303-1.282 0-2.093-.547-.81-.552-.994-1.566l1.437-.219q.133.562.552.85.417.285 1.088.284.731 0 1.169-.303.437-.309.437-.751a.78.78 0 0 0-.268-.602q-.264-.244-.811-.367l-1.292-.284q-1.07-.243-1.581-.775-.507-.532-.507-1.348 0-.676.378-1.183.377-.507 1.044-.79.666-.29 1.526-.289 1.238 0 1.949.537.711.532.939 1.427" fill="#F8FAFC"/></svg>