<svg xmlns="http://www.w3.org/2000/svg" viewBox="0 0 50 50" fill-rule="evenodd" clip-rule="evenodd" stroke-linejoin="round" stroke-miterlimit="2"><ellipse cx="34.6" cy="40.7" rx="15.4" ry="14.1" transform="matrix(1.61827 0 0 1.77331 -31 -47.2)"/><g transform="translate(12.5 14.1)scale(.04455)"><clipPath id="a"><path d="M0 0h561.1v488.9H0z"/></clipPath><g clip-path="url(#a)"><path d="M100.5 69.4 83.8 86.8A3.9 3.9 0 0 1 81 88H2a2 2 0 0 1-1.8-1.1 1.8 1.8 0 0 1 .3-2l16.7-17.5a3.9 3.9 0 0 1 2.8-1.2h79a2 2 0 0 1 1.8 1.1 1.8 1.8 0 0 1-.3 2zM83.8 34.3a3.9 3.9 0 0 0-2.8-1.2H2a2 2 0 0 0-1.8 1.1 1.8 1.8 0 0 0 .3 2l16.7 17.5a3.9 3.9 0 0 0 2.8 1.2h79a2 2 0 0 0 1.8-1.1 1.8 1.8 0 0 0-.3-2L83.8 34.2zM2 21.8h79a4 4 0 0 0 3-1.2l16.6-17.4a1.9 1.9 0 0 0-.4-2.9 2 2 0 0 0-1-.3H20a4 4 0 0 0-2.9 1.2L.5 18.6a1.9 1.9 0 0 0-.3 2c.1.4.4.7.7.9s.7.3 1 .3z" transform="scale(5.55556)" fill="url(#b)" fill-rule="nonzero"/></g></g><defs><linearGradient id="b" x1="0" x2="1" y1="0" y2="0" gradientTransform="rotate(-49.2 98.453 36.92)scale(123.0657)" gradientUnits="userSpaceOnUse"><stop offset="0" stop-color="#9945ff"/><stop offset=".1" stop-color="#9945ff"/><stop offset=".3" stop-color="#8752f3"/><stop offset=".5" stop-color="#5497d5"/><stop offset=".6" stop-color="#43b4ca"/><stop offset=".7" stop-color="#28e0b9"/><stop offset="1" stop-color="#19fb9b"/><stop offset="1" stop-color="#19fb9b"/></linearGradient></defs></svg>