<svg width="41" height="41" fill="none" xmlns="http://www.w3.org/2000/svg"><rect x=".016" y=".03" width="40" height="40" rx="20" fill="#14151C"/><g clip-path="url(#a)"><mask id="b" style="mask-type:luminance" maskUnits="userSpaceOnUse" x="8" y="8" width="25" height="25"><path d="M32.016 8.03h-24v24h24z" fill="white"/></mask><g mask="url(#b)"><path d="m19.654 20.789 1.318-1.273 2.456.804c1.608.536 2.412 1.518 2.412 2.903 0 1.05-.402 1.742-1.206 2.635l-.246.268.09-.625c.357-2.278-.313-3.26-2.524-3.975zm-3.305-7.794 6.7 2.233-1.452 1.385-3.484-1.162c-1.206-.402-1.608-1.05-1.764-2.412zm-.402 11.345 1.518-1.452 2.859.938c1.496.491 2.01 1.139 1.853 2.77zm-1.92-6.477c0-.424.222-.826.602-1.161.402.58 1.094 1.094 2.189 1.452l2.367.781-1.318 1.273-2.322-.76c-1.072-.356-1.519-.893-1.519-1.585m7.012 11.725c4.913-3.26 7.548-5.472 7.548-8.196 0-1.81-1.072-2.814-3.44-3.596l-1.786-.603 4.891-4.69-.983-1.05-1.451 1.274-6.856-2.256c-2.122.693-4.802 2.725-4.802 4.757 0 .223.022.447.09.692-1.765 1.005-2.48 1.943-2.48 3.105 0 1.094.581 2.188 2.435 2.791l1.474.491-5.092 4.891.982 1.05 1.586-1.452z" fill="#EEDA0F"/></g></g><defs><clipPath id="a"><rect width="24" height="24" fill="white" transform="translate(8.016 8.03)"/></clipPath></defs></svg>