<svg width="48" height="48" fill="none" xmlns="http://www.w3.org/2000/svg"><rect width="48" height="48" rx="8" fill="#FFEF46"/><path d="m24.099 25.112 1.93-1.864 3.598 1.177c2.355.785 3.533 2.225 3.533 4.253 0 1.537-.59 2.551-1.767 3.86l-.36.392.131-.916c.523-3.336-.458-4.776-3.696-5.823zm-4.841-11.416 9.813 3.271-2.126 2.028-5.103-1.7c-1.767-.59-2.355-1.538-2.584-3.533zm-.59 16.617 2.225-2.126 4.187 1.374c2.192.72 2.944 1.668 2.715 4.056zm-2.812-9.486c0-.621.327-1.21.883-1.7.589.85 1.603 1.602 3.206 2.125l3.467 1.145-1.93 1.865-3.402-1.113c-1.57-.523-2.224-1.308-2.224-2.322M26.126 38c7.197-4.776 11.057-8.014 11.057-12.005 0-2.65-1.57-4.121-5.038-5.266l-2.616-.883 7.163-6.87-1.44-1.537-2.125 1.865L23.085 10c-3.108 1.014-7.033 3.99-7.033 6.967 0 .327.033.655.13 1.014-2.583 1.472-3.63 2.846-3.63 4.547 0 1.603.85 3.206 3.565 4.089l2.16.72-7.459 7.163 1.44 1.537 2.322-2.126z" fill="#18181B"/></svg>