<svg width="20" height="20" fill="none" xmlns="http://www.w3.org/2000/svg"><mask id="a" style="mask-type:luminance" maskUnits="userSpaceOnUse" x="0" y="0" width="20" height="20"><path d="M20 0H0v20h20z" fill="white"/></mask><g mask="url(#a)"><path d="m9.698 10.633 1.098-1.061 2.048.67c1.34.447 2.01 1.265 2.01 2.42 0 .874-.335 1.45-1.005 2.195l-.205.224.074-.521c.298-1.899-.26-2.718-2.103-3.313zM6.944 4.138l5.583 1.86-1.21 1.155-2.903-.968c-1.005-.335-1.34-.875-1.47-2.01zm-.335 9.454 1.266-1.21 2.382.782c1.247.41 1.675.949 1.544 2.307zm-1.6-5.397c0-.354.186-.689.502-.968.335.484.912.912 1.824 1.21l1.973.651-1.098 1.06-1.936-.632c-.893-.298-1.265-.744-1.265-1.321m5.843 9.77c4.095-2.717 6.29-4.56 6.29-6.83 0-1.507-.893-2.345-2.865-2.996l-1.49-.503 4.076-3.908-.818-.875-1.21 1.061-5.714-1.88c-1.767.578-4 2.271-4 3.965 0 .186.018.372.074.577-1.47.837-2.066 1.619-2.066 2.586 0 .912.484 1.824 2.028 2.327l1.229.41-4.243 4.075.818.875 1.322-1.21z" fill="white"/></g></svg>