<svg width="40" height="40" fill="none" xmlns="http://www.w3.org/2000/svg"><rect width="40" height="40" rx="12" fill="#18181B"/><path d="M18.04 13.4a.64.64 0 0 0-.631.535l-1.049 6.6a.64.64 0 0 1 .631-.535h3.072a6.26 6.26 0 0 0 6.194-5.272q.055-.347.06-.685A5.86 5.86 0 0 0 23.6 13.4z" fill="#008CFF"/><path d="M26.318 14.043a5 5 0 0 1-.06.684A6.26 6.26 0 0 1 20.064 20h-3.072a.64.64 0 0 0-.63.535l-.964 6.065-.605 3.805a.51.51 0 0 0 .296.548.5.5 0 0 0 .217.047h3.334a.64.64 0 0 0 .63-.535l.88-5.53a.64.64 0 0 1 .63-.535h1.963a6.26 6.26 0 0 0 6.194-5.273c.34-2.153-.751-4.113-2.619-5.084" fill="#60CDFF"/><path d="M14.253 9a.64.64 0 0 0-.63.535l-2.617 16.47a.513.513 0 0 0 .513.595h3.88l.963-6.065 1.049-6.6a.63.63 0 0 1 .63-.535H23.6c1.011 0 1.933.234 2.72.643C26.372 11.28 24.076 9 20.92 9z" fill="#002991"/></svg>