<svg width="40" height="40" fill="none" xmlns="http://www.w3.org/2000/svg"><rect width="40" height="40" rx="12" fill="#18181B"/><path d="M22.167 22.167v2.166h2.167m2.167-2.166h2.166m0 4.333h-2.166v2.167m-4.334-.011v.01m1.084-10.832h4.333c.598 0 1.083-.485 1.083-1.084v-4.333c0-.598-.485-1.083-1.083-1.083h-4.333c-.599 0-1.084.485-1.084 1.083v4.333c0 .599.485 1.084 1.084 1.084M12.417 28.667h4.334c.598 0 1.083-.485 1.083-1.084V23.25c0-.598-.485-1.083-1.083-1.083h-4.334c-.598 0-1.083.485-1.083 1.083v4.334c0 .598.485 1.083 1.083 1.083m0-10.833h4.334c.598 0 1.083-.485 1.083-1.084v-4.333c0-.598-.485-1.083-1.083-1.083h-4.334c-.598 0-1.083.485-1.083 1.083v4.333c0 .599.485 1.084 1.083 1.084" stroke="white" stroke-width="2.167" stroke-linecap="round" stroke-linejoin="round"/></svg>