<svg width="40" height="40" fill="none" xmlns="http://www.w3.org/2000/svg"><rect width="40" height="40" rx="12" fill="#18181B"/><path d="M21.153 21.011v3.22h-1.022V16.28h2.71c.686 0 1.272.229 1.75.687q.735.687.735 1.676c0 .677-.244 1.235-.734 1.688q-.713.677-1.751.676h-1.688zm0-3.752v2.773h1.709c.405 0 .745-.139 1.011-.41a1.34 1.34 0 0 0 .41-.974c0-.367-.138-.692-.41-.964q-.398-.421-1.011-.42h-1.709zM28.002 18.61q1.134 0 1.788.608.655.607.655 1.66v3.354h-.974v-.756h-.043q-.631.933-1.687.931-.9.002-1.506-.532a1.7 1.7 0 0 1-.607-1.33q0-.847.639-1.342.64-.501 1.703-.5.912 0 1.496.335v-.234a1.16 1.16 0 0 0-.42-.905 1.44 1.44 0 0 0-.99-.373q-.857-.001-1.353.724l-.9-.564q.745-1.077 2.199-1.075m-1.32 3.95q-.001.4.34.666.337.264.794.266.646 0 1.15-.48.504-.477.505-1.122-.478-.377-1.33-.378-.624 0-1.039.298-.422.31-.42.75M36 18.786l-3.407 7.835H31.54l1.267-2.74-2.246-5.095h1.112l1.619 3.907h.02l1.577-3.907z" fill="#FAFAFA"/><path d="M18.81 20.172q-.002-.829-.14-1.59h-7.107v2.914h4.093c-.166.97-.7 1.797-1.52 2.348v1.89h2.437c1.423-1.316 2.238-3.262 2.238-5.562" fill="#4285F4"/><path d="M14.137 23.845c-.678.457-1.551.725-2.573.725-1.974 0-3.648-1.33-4.248-3.123H4.803v1.95a7.57 7.57 0 0 0 6.76 4.166c2.044 0 3.76-.672 5.01-1.829z" fill="#34A853"/><path d="M7.08 20c0-.503.085-.99.238-1.447v-1.95H4.804A7.5 7.5 0 0 0 4 20c0 1.222.29 2.375.804 3.397l2.514-1.95A4.6 4.6 0 0 1 7.08 20" fill="#FABB05"/><path d="M11.564 15.43c1.115 0 2.114.385 2.903 1.135l2.159-2.157c-1.312-1.221-3.021-1.971-5.062-1.971a7.57 7.57 0 0 0-6.76 4.166l2.512 1.95c.6-1.793 2.274-3.123 4.248-3.123" fill="#E94235"/></svg>