<svg width="40" height="40" fill="none" xmlns="http://www.w3.org/2000/svg"><rect width="40" height="40" rx="12" fill="#18181B"/><path d="m20.07 20.794 1.378-1.331 2.57.84c1.683.561 2.524 1.59 2.524 3.038 0 1.098-.42 1.823-1.262 2.757l-.257.28.094-.654c.373-2.383-.327-3.41-2.64-4.159zm-3.458-8.154 7.01 2.337-1.52 1.448-3.644-1.215c-1.262-.42-1.682-1.098-1.846-2.523zm-.42 11.87 1.588-1.52 2.99.982c1.566.514 2.104 1.192 1.94 2.897zm-2.01-6.776c0-.444.234-.865.63-1.215.422.607 1.146 1.145 2.29 1.518l2.477.818-1.378 1.332-2.43-.795c-1.122-.373-1.589-.934-1.589-1.658M21.52 30c5.14-3.411 7.897-5.724 7.897-8.575 0-1.892-1.122-2.944-3.598-3.762l-1.87-.63 5.117-4.907-1.028-1.098-1.518 1.332L19.346 10c-2.22.724-5.024 2.85-5.024 4.977 0 .233.024.467.094.724-1.846 1.051-2.594 2.033-2.594 3.248 0 1.144.608 2.29 2.547 2.92l1.542.514-5.327 5.117 1.028 1.098 1.659-1.518z" fill="#FFEF46"/></svg>