<svg width="40" height="40" fill="none" xmlns="http://www.w3.org/2000/svg"><rect width="40" height="40" rx="12" fill="#18181B"/><path d="M21.49 23.25a1.219 1.219 0 0 0 0-2.437h-3.115v2.437zM18.375 19.188V16.75h3.115a1.219 1.219 0 0 1 0 2.438z" fill="#FB923C"/><path fill-rule="evenodd" clip-rule="evenodd" d="M9.166 20c0-5.983 4.85-10.833 10.833-10.833S30.833 14.016 30.833 20s-4.85 10.833-10.834 10.833c-5.983 0-10.833-4.85-10.833-10.833m6.77-4.875a.813.813 0 0 0 0 1.625h.813v6.5h-.812a.813.813 0 0 0 0 1.625h3.25v.812a.812.812 0 1 0 1.625 0v-.812h.677A2.844 2.844 0 0 0 23.479 20a2.844 2.844 0 0 0-1.99-4.875h-.677v-.813a.812.812 0 1 0-1.625 0v.813z" fill="#FB923C"/></svg>