<svg width="40" height="40" fill="none" xmlns="http://www.w3.org/2000/svg"><rect width="40" height="40" rx="12" fill="#18181B"/><path fill-rule="evenodd" clip-rule="evenodd" d="M17.765 24.76c-1.257 1.926-3.363 4.363-6.166 4.363-1.325 0-2.599-.545-2.599-2.914 0-6.035 8.239-15.376 15.883-15.376 4.348 0 6.081 3.017 6.081 6.443 0 4.398-2.854 9.427-5.69 9.427-.9 0-1.342-.495-1.342-1.279q0-.306.102-.665c-.969 1.654-2.837 3.188-4.587 3.188-1.274 0-1.92-.8-1.92-1.926 0-.41.085-.835.238-1.262m5.674-9.288c-.692.002-1.163.59-1.162 1.428.002.839.475 1.442 1.167 1.44.676 0 1.147-.605 1.146-1.444s-.476-1.425-1.15-1.424m3.67-.004c-.691.002-1.163.59-1.162 1.428.002.839.476 1.442 1.168 1.44.675 0 1.147-.605 1.145-1.444-.001-.839-.475-1.425-1.15-1.424" fill="#A9A0EE"/></svg>