<svg width="40" height="40" fill="none" xmlns="http://www.w3.org/2000/svg"><rect width="40" height="40" rx="12" fill="#18181B"/><mask id="a" style="mask-type:luminance" maskUnits="userSpaceOnUse" x="7" y="7" width="26" height="26"><path d="M32.5 7.498h-25v25h25z" fill="white"/></mask><g mask="url(#a)"><path d="M11.805 31.422h.504c.092 0 .184-.046.214-.123 3.804-9.686 7.945-14.483 10.542-17.355.107-.122.06-.214-.092-.214H18.33a.53.53 0 0 0-.428.214l-3.33 4.125c-.49.611-.611 1.177-.611 1.986v4.217c-1.085 3.04-1.773 5.102-2.277 6.966-.03.12.015.184.122.184m16.76-22.23c-.718-.763-3.957-.794-5.454-.213-.312.12-.611.325-.749.443a39 39 0 0 0-3.162 3.025c-.107.107-.061.214.091.214h5.149c.473 0 .748.275.748.749v5.805c0 .153.123.198.214.061l3.101-4.049c.505-.657.657-.855.795-1.772.183-1.344.076-3.406-.733-4.262m-6.646 15.4 2.124-3.498a.64.64 0 0 0 .06-.275v-5.836c0-.153-.106-.214-.213-.092-3.193 3.56-5.683 7.303-7.99 11.81-.058.113.015.214.152.168l4.767-1.467c.538-.165.84-.382 1.1-.81" fill="#CCFF00"/></g></svg>