<svg width="40" height="40" fill="none" xmlns="http://www.w3.org/2000/svg"><rect width="40" height="40" rx="12" fill="#18181B"/><path d="M28.338 14.956a4.96 4.96 0 0 0-2.368 4.169 4.82 4.82 0 0 0 2.935 4.423 11.5 11.5 0 0 1-1.503 3.105c-.936 1.347-1.914 2.694-3.403 2.694-1.488 0-1.871-.865-3.587-.865-1.673 0-2.268.893-3.63.893-1.36 0-2.31-1.248-3.402-2.779a13.43 13.43 0 0 1-2.282-7.244c0-4.254 2.764-6.508 5.486-6.508 1.447 0 2.652.95 3.559.95.865 0 2.212-1.007 3.856-1.007a5.16 5.16 0 0 1 4.339 2.17m-5.119-3.97a4.9 4.9 0 0 0 1.163-3.047 2 2 0 0 0-.042-.439 4.9 4.9 0 0 0-3.219 1.659 4.75 4.75 0 0 0-1.205 2.963q0 .2.043.397.148.028.297.028a4.25 4.25 0 0 0 2.964-1.56" fill="white"/></svg>