<svg viewBox="0 0 34 34" xmlns="http://www.w3.org/2000/svg" fill-rule="evenodd" clip-rule="evenodd"><path d="M33.562 4v25.562c0 2.208-1.793 4-4 4H4c-2.208 0-4-1.792-4-4V4c0-2.208 1.792-4 4-4h25.561c2.208 0 4 1.792 4 4z" fill="#1b1d27" fill-opacity=".5"/><path d="M33.3 4.012V29.55c0 2.07-1.68 3.75-3.751 3.75H4.013c-2.07 0-3.75-1.68-3.75-3.75V4.012c0-2.07 1.68-3.75 3.75-3.75h25.536c2.07 0 3.75 1.68 3.75 3.75z" fill="none" stroke="#000" stroke-opacity=".1" stroke-width=".524"/><path d="m13.626 12.734-3.433 8.116H7.954l-1.69-6.477c-.102-.4-.191-.545-.503-.713-.51-.274-1.35-.53-2.09-.69l.05-.236h3.605c.46 0 .872.303.977.828l.892 4.695 2.205-5.523zm8.775 5.465c.01-2.141-2.989-2.259-2.968-3.216.007-.29.287-.601.899-.68.303-.039 1.14-.07 2.088.363l.373-1.72a5.7 5.7 0 0 0-1.983-.36c-2.093 0-3.568 1.102-3.58 2.682-.013 1.168 1.053 1.82 1.855 2.209.825.397 1.103.653 1.1 1.009-.006.544-.658.784-1.269.794-1.065.015-1.683-.286-2.175-.513l-.384 1.777c.494.226 1.409.422 2.356.432 2.225 0 3.682-1.09 3.688-2.777m5.53 2.65h1.96l-1.71-8.115h-1.809a.965.965 0 0 0-.902.596l-3.179 7.52h2.225l.441-1.213h2.719l.256 1.213zm-2.363-2.875 1.115-3.047.641 3.047zm-8.914-5.24L14.9 20.85h-2.118l1.752-8.116z" fill="#fff" fill-rule="nonzero"/></svg>