<svg width="116" height="32" fill="none" xmlns="http://www.w3.org/2000/svg"><g filter="url(#a)"><path d="M12.603 28.046q-3.171-.012-5.364-1.466-2.193-1.455-3.216-4.193Q3 19.647 3.33 15.818q.341-3.84 1.807-6.522 1.477-2.682 3.886-4.08 2.42-1.398 5.58-1.398 3.17 0 5.352 1.398 2.193 1.398 3.216 4.08 1.034 2.681.704 6.522-.318 3.84-1.795 6.58-1.466 2.738-3.887 4.193-2.42 1.454-5.59 1.454m.431-5.137q1.637 0 2.807-1.704 1.182-1.716 1.489-5.387.204-2.397-.148-3.92-.34-1.523-1.125-2.25a2.6 2.6 0 0 0-1.864-.739q-1.636 0-2.818 1.66-1.182 1.658-1.5 5.25-.204 2.442.148 4.022.353 1.569 1.136 2.318.784.75 1.875.75m25.894.137.114-1.228a6.46 6.46 0 0 1 .875-2.727 5.75 5.75 0 0 1 2.034-2.011q1.284-.762 3.045-.762 1.807 0 2.99.75a4.35 4.35 0 0 1 1.715 2q.534 1.25.386 2.75l-.113 1.227a6.4 6.4 0 0 1-.886 2.728 5.63 5.63 0 0 1-2.035 2.011q-1.295.762-3.08.762-1.783 0-2.954-.762a4.44 4.44 0 0 1-1.704-2.011q-.523-1.262-.387-2.727m4.069-1.228-.114 1.227q-.057.637.216 1.273.273.637 1.17.637.944 0 1.296-.614a3.2 3.2 0 0 0 .409-1.296l.114-1.227a2.9 2.9 0 0 0-.171-1.318q-.239-.636-1.216-.636-.898 0-1.273.636a3.3 3.3 0 0 0-.431 1.318M27.86 9.728l.091-1.228a6.1 6.1 0 0 1 .864-2.75 5.7 5.7 0 0 1 2.057-2Q32.166 3 33.906 3q1.807 0 2.977.75t1.693 2q.534 1.24.42 2.75l-.09 1.227a6 6 0 0 1-.853 2.739 5.55 5.55 0 0 1-2.056 1.977q-1.308.74-3.091.739-1.784 0-2.943-.75a4.33 4.33 0 0 1-1.682-1.989q-.524-1.237-.42-2.716M31.951 8.5l-.09 1.227q-.047.683.215 1.296.262.614 1.125.614.943 0 1.295-.614.365-.614.41-1.296l.09-1.227a3 3 0 0 0-.181-1.318q-.227-.636-1.205-.636-.898 0-1.261.659A3.2 3.2 0 0 0 31.95 8.5m-3.659 18.91L46.224 4.135h3.318L31.61 27.41zm30.504 0 1.932-23.274H77.09l-.431 5.091H66.614l-.318 4h9.045l-.431 5.091h-9.046l-.75 9.091zm25.198.317q-2.796 0-4.727-1.068a6.6 6.6 0 0 1-2.841-3.09q-.92-2.024-.682-4.842.228-2.704 1.489-4.727a8.8 8.8 0 0 1 3.34-3.148q2.08-1.125 4.785-1.125 1.977 0 3.522.614 1.557.614 2.591 1.784 1.045 1.16 1.512 2.818.477 1.66.307 3.739l-.114 1.455h-15.59l.272-3.455h9.818q.056-.75-.261-1.318a2.14 2.14 0 0 0-.898-.898q-.58-.33-1.364-.33-.76 0-1.42.33-.66.318-1.091.898-.42.579-.511 1.363l-.341 3.682q-.069.84.227 1.5t.92 1.034q.626.375 1.557.375.648 0 1.205-.181.556-.183.966-.523.42-.352.647-.841h5.728a7.24 7.24 0 0 1-1.67 3.159q-1.206 1.33-3.08 2.068-1.865.727-4.296.727m18.829 0q-2.796 0-4.727-1.068a6.6 6.6 0 0 1-2.841-3.09q-.92-2.024-.682-4.842.227-2.704 1.489-4.727a8.8 8.8 0 0 1 3.34-3.148q2.08-1.125 4.785-1.125 1.977 0 3.522.614 1.557.614 2.591 1.784 1.045 1.16 1.512 2.818.477 1.66.306 3.739l-.113 1.455H96.414l.272-3.455h9.819q.056-.75-.262-1.318a2.13 2.13 0 0 0-.897-.898q-.58-.33-1.364-.33-.762 0-1.42.33-.66.318-1.091.898-.421.579-.512 1.363l-.341 3.682q-.067.84.228 1.5t.92 1.034q.626.375 1.557.375.648 0 1.204-.181a2.9 2.9 0 0 0 .966-.523 2.4 2.4 0 0 0 .648-.841h5.727a7.2 7.2 0 0 1-1.67 3.159q-1.205 1.33-3.08 2.068-1.863.727-4.295.727" fill="url(#b)"/></g><defs><filter id="a" x="0" y="0" width="115.289" height="31.545" filterUnits="userSpaceOnUse" color-interpolation-filters="sRGB"><feFlood flood-opacity="0" result="BackgroundImageFix"/><feColorMatrix in="SourceAlpha" values="0 0 0 0 0 0 0 0 0 0 0 0 0 0 0 0 0 0 127 0" result="hardAlpha"/><feOffset/><feGaussianBlur stdDeviation="1.5"/><feComposite in2="hardAlpha" operator="out"/><feColorMatrix values="0 0 0 0 0.133198 0 0 0 0 0.998986 0 0 0 0 0 0 0 0 0.5 0"/><feBlend in2="BackgroundImageFix" result="effect1_dropShadow_13718_57208"/><feBlend in="SourceGraphic" in2="effect1_dropShadow_13718_57208" result="shape"/></filter><linearGradient id="b" x1="57.693" y1="-.591" x2="57.693" y2="31.409" gradientUnits="userSpaceOnUse"><stop stop-color="#EDFD79"/><stop offset="1" stop-color="#01FF5D"/></linearGradient></defs></svg>