<svg width="121" height="73" fill="none" xmlns="http://www.w3.org/2000/svg"><path d="M1.27 5.766A4 4 0 0 1 5.74 1.57l101.635 12.194a4 4 0 0 1 3.469 3.313l8.38 50.266A4 4 0 0 1 115.278 72H8.8a4 4 0 0 1-3.993-3.774z" fill="url(#a)" fill-opacity=".6" stroke="url(#b)" stroke-width="2"/><mask id="d" maskUnits="userSpaceOnUse" x="5" y="7" width="13" height="15" fill="black"><rect fill="white" x="5" y="7" width="13" height="15"/><path d="M6.815 18.827v-2.059l5.162-8.132h1.774v2.85h-1.05l-3.254 5.15v.096h7.335v2.095zM12.749 21v-2.801l.049-.912v-8.65h2.45V21z"/></mask><path d="M6.815 18.827v-2.059l5.162-8.132h1.774v2.85h-1.05l-3.254 5.15v.096h7.335v2.095zM12.749 21v-2.801l.049-.912v-8.65h2.45V21z" fill="#E4E4E7"/><path d="M6.815 18.827h-1v1h1zm0-2.059-.844-.536-.156.245v.291zm5.162-8.132v-1h-.55l-.295.464zm1.774 0h1v-1h-1zm0 2.85v1h1v-1zm-1.05 0v-1h-.551l-.294.466zm-3.254 5.15-.845-.535-.155.245v.29zm0 .096h-1v1h1zm7.335 0h1v-1h-1zm0 2.095v1h1v-1zM12.749 21h-1v1h1zm0-2.801-.998-.053-.002.026v.027zm.049-.912.998.053.002-.026v-.027zm0-8.65v-1h-1v1zm2.45 0h1v-1h-1zm0 12.363v1h1v-1zm-8.433-2.173h1v-2.059h-2v2.059zm0-2.059.844.536 5.162-8.132-.844-.536-.845-.536-5.161 8.132zm5.162-8.132v1h1.774v-2h-1.774zm1.774 0h-1v2.85h2v-2.85zm0 2.85v-1h-1.05v2h1.05zm-1.05 0-.845-.534-3.254 5.15.845.533.846.534 3.253-5.149zm-3.254 5.15h-1v.096h2v-.097zm0 .096v1h7.335v-2H9.447zm7.335 0h-1v2.095h2v-2.095zm0 2.095v-1H6.815v2h9.967zM12.749 21h1v-2.801h-2V21zm0-2.801.999.053.048-.912-.998-.053-.999-.053-.048.912zm.049-.912h1v-8.65h-2v8.65zm0-8.65v1h2.45v-2h-2.45zm2.45 0h-1V21h2V8.636zm0 12.363v-1H12.75v2h2.5z" fill="url(#c)" mask="url(#d)"/><defs><linearGradient id="a" x1="60.5" y1="37" x2="60.5" y2="72" gradientUnits="userSpaceOnUse"><stop stop-opacity="0"/><stop offset="1"/></linearGradient><linearGradient id="b" x1="117.918" y1="67.361" x2="-5.217" y2="12.391" gradientUnits="userSpaceOnUse"><stop offset=".029" stop-color="#27272A"/><stop offset=".351" stop-color="#52525B" stop-opacity=".29"/><stop offset=".498" stop-color="#52525B"/><stop offset=".646" stop-color="#52525B" stop-opacity=".34"/><stop offset=".96" stop-color="#27272A"/></linearGradient><linearGradient id="c" x1="17.79" y1="23.628" x2="4.339" y2="21.696" gradientUnits="userSpaceOnUse"><stop offset=".029" stop-color="#27272A"/><stop offset=".351" stop-color="#52525B" stop-opacity=".29"/><stop offset=".498" stop-color="#52525B"/><stop offset=".646" stop-color="#52525B" stop-opacity=".34"/><stop offset=".96" stop-color="#27272A"/></linearGradient></defs></svg>