<svg width="31" height="58" fill="none" xmlns="http://www.w3.org/2000/svg"><mask id="b" maskUnits="userSpaceOnUse" x="0" y="0" width="31" height="58" fill="black"><rect fill="white" width="31" height="58"/><path d="M26.524 4.545V54H16.068V14.47h-.29l-11.325 7.1v-9.273l12.243-7.752z"/></mask><path d="M26.524 4.545V54H16.068V14.47h-.29l-11.325 7.1v-9.273l12.243-7.752z" fill="#FBBF24"/><path d="M26.524 4.545h4v-4h-4zm0 49.455v4h4v-4zm-10.456 0h-4v4h4zm0-39.53h4v-4h-4zm-.29 0v-4h-1.15l-.974.611zm-11.325 7.1h-4v7.228l6.125-3.84zm0-9.273-2.14-3.38-1.86 1.178v2.202zm12.243-7.752v-4h-1.16l-.98.62zm9.828 0h-4V54h8V4.545zm0 49.455v-4H16.068v8h10.456zm-10.456 0h4V14.47h-8V54zm0-39.53v-4h-.29v8h.29zm-.29 0-2.124-3.389-11.325 7.1 2.124 3.389 2.125 3.389 11.325-7.1zm-11.325 7.1h4v-9.273h-8v9.273zm0-9.273 2.14 3.38 12.243-7.752-2.14-3.38-2.14-3.38L2.313 8.918zm12.243-7.752v4h9.828v-8h-9.828z" fill="url(#a)" mask="url(#b)"/><defs><linearGradient id="a" x1="34.405" y1="54.21" x2="-3.666" y2="48.602" gradientUnits="userSpaceOnUse"><stop offset=".029" stop-color="#27272A"/><stop offset=".351" stop-color="#FBBF24" stop-opacity=".29"/><stop offset=".498" stop-color="#FBBF24"/><stop offset=".646" stop-color="#FBBF24" stop-opacity=".34"/><stop offset=".96" stop-color="#27272A"/></linearGradient></defs></svg>