<svg width="121" height="109" fill="none" xmlns="http://www.w3.org/2000/svg"><path d="M5.459 5.539a4 4 0 0 1 4.675-3.768L114.99 19.824a4 4 0 0 1 3.321 3.862l1.606 80.234a4 4 0 0 1-3.999 4.08H5.178a4 4 0 0 1-3.996-4.174z" fill="url(#a)" fill-opacity=".6" stroke="url(#b)" stroke-width="2"/><mask id="d" maskUnits="userSpaceOnUse" x="9" y="7" width="15" height="20" fill="black"><rect fill="white" x="9" y="7" width="15" height="20"/><path d="M10.415 26v-2.66l6.213-5.752q.792-.767 1.33-1.38.545-.614.826-1.202a3 3 0 0 0 .281-1.287q0-.768-.35-1.321a2.3 2.3 0 0 0-.954-.861 3 3 0 0 0-1.372-.307q-.801 0-1.397.324a2.23 2.23 0 0 0-.921.929q-.324.604-.324 1.44h-3.503q0-1.713.776-2.974.775-1.262 2.173-1.952t3.222-.69q1.875 0 3.264.665 1.398.655 2.173 1.824.776 1.167.776 2.676 0 .989-.392 1.951-.384.963-1.372 2.14-.99 1.167-2.787 2.803l-2.549 2.498v.119h7.33V26z"/></mask><path d="M10.415 26v-2.66l6.213-5.752q.792-.767 1.33-1.38.545-.614.826-1.202a3 3 0 0 0 .281-1.287q0-.768-.35-1.321a2.3 2.3 0 0 0-.954-.861 3 3 0 0 0-1.372-.307q-.801 0-1.397.324a2.23 2.23 0 0 0-.921.929q-.324.604-.324 1.44h-3.503q0-1.713.776-2.974.775-1.262 2.173-1.952t3.222-.69q1.875 0 3.264.665 1.398.655 2.173 1.824.776 1.167.776 2.676 0 .989-.392 1.951-.384.963-1.372 2.14-.99 1.167-2.787 2.803l-2.549 2.498v.119h7.33V26z" fill="#E4E4E7"/><path d="M10.415 26h-1v1h1zm0-2.66-.68-.733-.32.297v.437zm6.213-5.752.68.734.007-.008.008-.007zm1.33-1.38-.748-.665-.005.006zm.826-1.202.902.431.003-.005zm-.068-2.608-.85.527.004.006zm-.955-.861-.452.892.01.005zm-3.69.946.882.472zm-.324 1.44v1h1v-1zm-3.503 0h-1v1h1zm.776-2.974.852.524zm2.173-1.952-.443-.896zm6.486-.025-.432.902.007.003zm2.173 1.824-.833.553zm.384 4.627-.926-.377-.003.007zm-1.372 2.14.763.646.002-.003zm-2.787 2.803-.673-.74-.014.013-.013.013zm-2.549 2.498-.7-.715-.3.294v.42zm0 .119h-1v1h1zm7.33 0h1v-1h-1zm0 3.017v1h1v-1zm-12.443 0h1v-2.66h-2V26zm0-2.66.68.735 6.212-5.753-.68-.734-.679-.734-6.213 5.753zm6.213-5.752.695.719a25 25 0 0 0 1.387-1.441l-.753-.659-.752-.658q-.502.573-1.273 1.32zm1.33-1.38.747.664c.41-.462.744-.94.981-1.435l-.902-.431-.902-.432a4.3 4.3 0 0 1-.672.969zm.826-1.202.905.426a4 4 0 0 0 .376-1.713h-2c0 .32-.064.602-.185.86zm.281-1.287h1c0-.668-.153-1.3-.503-1.855l-.846.534-.846.533c.116.184.195.432.195.788zm-.35-1.321.85-.528a3.3 3.3 0 0 0-1.362-1.23l-.442.897-.442.897c.24.118.415.278.547.491zm-.954-.861.453-.892a4 4 0 0 0-1.825-.415v2c.375 0 .674.074.92.199zm-1.372-.307v-1c-.67 0-1.306.136-1.875.445l.478.879.477.879c.226-.123.523-.203.92-.203zm-1.397.324-.478-.879a3.23 3.23 0 0 0-1.325 1.336l.882.472.882.472c.125-.233.292-.4.516-.522zm-.921.929-.882-.472c-.308.577-.442 1.226-.442 1.912h2c0-.427.083-.738.206-.968zm-.324 1.44v-1h-3.503v2h3.503zm-3.503 0h1c0-.986.222-1.79.628-2.45l-.852-.524-.852-.524c-.628 1.022-.924 2.2-.924 3.498zm.776-2.974.852.524c.413-.672.992-1.198 1.764-1.58l-.443-.896-.443-.896c-1.09.538-1.961 1.314-2.582 2.324zm2.173-1.952.443.897c.773-.382 1.69-.587 2.779-.587v-2c-1.344 0-2.574.255-3.665.794zm3.222-.69v1c1.132 0 2.067.2 2.832.567l.432-.902.432-.902c-1.087-.52-2.329-.763-3.696-.763zm3.264.665-.425.905c.784.368 1.36.861 1.765 1.472l.833-.553.833-.554c-.628-.946-1.5-1.668-2.581-2.176zm2.173 1.824-.833.553c.4.602.609 1.298.609 2.123h2c0-1.187-.308-2.275-.943-3.23zm.776 2.676h-1c0 .523-.103 1.046-.318 1.574l.926.377.926.377a6.1 6.1 0 0 0 .466-2.328zm-.392 1.951-.93-.37c-.201.508-.588 1.128-1.208 1.866l.766.643.765.644c.698-.83 1.226-1.636 1.536-2.413zm-1.372 2.14-.764-.647c-.62.732-1.513 1.634-2.696 2.71l.673.74.673.74c1.214-1.105 2.178-2.073 2.877-2.897zm-2.787 2.803-.7-.714-2.548 2.497.7.715.7.714 2.548-2.497zm-2.549 2.498h-1v.119h2v-.12zm0 .119v1h7.33v-2h-7.33zm7.33 0h-1V26h2v-3.017zm0 3.017v-1H10.415v2h12.443z" fill="url(#c)" mask="url(#d)"/><defs><linearGradient id="a" x1="60.5" y1="55" x2="60.5" y2="108" gradientUnits="userSpaceOnUse"><stop stop-opacity="0"/><stop offset="1"/></linearGradient><linearGradient id="b" x1="117.918" y1="101.009" x2="-17.844" y2="60.793" gradientUnits="userSpaceOnUse"><stop offset=".029" stop-color="#27272A"/><stop offset=".351" stop-color="#D4D4D8" stop-opacity=".29"/><stop offset=".498" stop-color="#D4D4D8"/><stop offset=".646" stop-color="#D4D4D8" stop-opacity=".34"/><stop offset=".96" stop-color="#27272A"/></linearGradient><linearGradient id="c" x1="24.72" y1="27.432" x2="6.915" y2="24.449" gradientUnits="userSpaceOnUse"><stop offset=".029" stop-color="#27272A"/><stop offset=".351" stop-color="#D4D4D8" stop-opacity=".29"/><stop offset=".498" stop-color="#D4D4D8"/><stop offset=".646" stop-color="#D4D4D8" stop-opacity=".34"/><stop offset=".96" stop-color="#27272A"/></linearGradient></defs></svg>