<svg width="119" height="89" fill="none" xmlns="http://www.w3.org/2000/svg"><path d="M1.14 5.717a4 4 0 0 1 4.536-4.082L112.07 16.083a4 4 0 0 1 3.459 3.818l2.322 63.954A4 4 0 0 1 113.852 88H7.462a4 4 0 0 1-3.998-3.882z" fill="url(#a)" fill-opacity=".6" stroke="url(#b)" stroke-width="2"/><mask id="d" maskUnits="userSpaceOnUse" x="6" y="7" width="14" height="18" fill="black"><rect fill="white" x="6" y="7" width="14" height="18"/><path d="M12.555 23.199q-1.59 0-2.833-.547-1.236-.555-1.954-1.52-.71-.974-.731-2.244h3.097q.027.532.348.937.326.398.866.618t1.214.22q.704 0 1.243-.248a2.04 2.04 0 0 0 .846-.69q.305-.44.305-1.015a1.7 1.7 0 0 0-.327-1.03q-.319-.455-.923-.71-.597-.255-1.42-.255h-1.357v-2.259h1.357q.695 0 1.228-.242.54-.24.838-.667.3-.433.299-1.009 0-.546-.263-.959a1.74 1.74 0 0 0-.725-.653 2.36 2.36 0 0 0-1.08-.234q-.624 0-1.143.227a2 2 0 0 0-.83.632q-.313.413-.334.966H7.328q.021-1.257.717-2.216.697-.96 1.875-1.498 1.187-.547 2.678-.547 1.506 0 2.635.547t1.754 1.477q.633.923.625 2.074.008 1.221-.76 2.038-.76.817-1.981 1.037v.114q1.605.206 2.443 1.115.845.902.838 2.258a3.55 3.55 0 0 1-.717 2.209q-.719.965-1.982 1.52-1.265.555-2.898.554"/></mask><path d="M12.555 23.199q-1.59 0-2.833-.547-1.236-.555-1.954-1.52-.71-.974-.731-2.244h3.097q.027.532.348.937.326.398.866.618t1.214.22q.704 0 1.243-.248a2.04 2.04 0 0 0 .846-.69q.305-.44.305-1.015a1.7 1.7 0 0 0-.327-1.03q-.319-.455-.923-.71-.597-.255-1.42-.255h-1.357v-2.259h1.357q.695 0 1.228-.242.54-.24.838-.667.3-.433.299-1.009 0-.546-.263-.959a1.74 1.74 0 0 0-.725-.653 2.36 2.36 0 0 0-1.08-.234q-.624 0-1.143.227a2 2 0 0 0-.83.632q-.313.413-.334.966H7.328q.021-1.257.717-2.216.697-.96 1.875-1.498 1.187-.547 2.678-.547 1.506 0 2.635.547t1.754 1.477q.633.923.625 2.074.008 1.221-.76 2.038-.76.817-1.981 1.037v.114q1.605.206 2.443 1.115.845.902.838 2.258a3.55 3.55 0 0 1-.717 2.209q-.719.965-1.982 1.52-1.265.555-2.898.554" fill="#E4E4E7"/><path d="m9.722 22.652-.41.912.007.003zm-1.954-1.52-.807.59.005.006zm-.731-2.244v-1H6.02l.017 1.016zm3.097 0 .998-.054-.05-.946h-.949zm.348.937-.785.62.006.008.006.007zm.866.618-.378.926zm2.457-.028-.418-.909zm.846-.69.821.57zm-.022-2.045-.818.576.005.007.006.007zm-.923-.71-.394.92.004.001zm-2.777-.255h-1v1h1zm0-2.259v-1h-1v1zm2.585-.242-.408-.912-.005.002zm.838-.667.82.573.004-.006zm.036-1.968-.854.521.005.009.006.008zm-.725-.653-.452.892.005.003zm-2.223-.007.391.92.01-.004zm-.83.632.796.604zm-.334.966v1h.962l.037-.961zm-2.948 0-1-.017-.017 1.017h1.017zm.717-2.216.81.588zM9.92 8.803l.417.909.002-.001zm5.313 0 .436-.9zm1.754 1.477-.83.558.005.007zm.625 2.074-1-.006v.011zm-.76 2.038-.729-.684-.003.003zm-1.981 1.037-.178-.984-.822.148v.836zm0 .114h-1v.88l.872.112zm2.443 1.115-.735.677.005.006zm.838 2.258-1-.005v.01zm-.717 2.209-.8-.6-.003.004zm-1.982 1.52-.401-.916zm-2.898.554v-1c-.945 0-1.749-.162-2.43-.462l-.403.915-.403.915c.975.43 2.06.632 3.236.632zm-2.833-.547.409-.913c-.688-.308-1.196-.713-1.56-1.203l-.803.596-.802.596c.592.798 1.386 1.406 2.347 1.836zm-1.954-1.52.808-.59c-.345-.472-.528-1.018-.54-1.671l-1 .017-.999.016c.018 1.042.322 1.993.924 2.818zm-.731-2.244v1h3.097v-2H7.037zm3.097 0-1 .053c.03.554.217 1.066.563 1.504l.785-.62.784-.62a.6.6 0 0 1-.134-.37zm.348.937-.773.635c.336.41.768.708 1.261.91l.378-.927.378-.926a1.15 1.15 0 0 1-.472-.326zm.866.618-.378.926a4.2 4.2 0 0 0 1.592.294v-2c-.34 0-.614-.055-.836-.146zm1.214.22v1c.588 0 1.149-.104 1.662-.34l-.419-.908-.418-.909c-.207.096-.474.157-.825.157zm1.243-.248.419.908a3.04 3.04 0 0 0 1.248-1.027l-.821-.57-.822-.57a1.04 1.04 0 0 1-.442.35zm.846-.69.821.57a2.74 2.74 0 0 0 .484-1.585h-2a.74.74 0 0 1-.127.446zm.305-1.015h1a2.7 2.7 0 0 0-.52-1.62l-.807.59-.807.59a.7.7 0 0 1 .134.44zm-.327-1.03.818-.575c-.338-.481-.808-.826-1.351-1.056l-.39.921-.39.921c.262.11.408.24.495.365zm-.923-.71.394-.919c-.551-.236-1.165-.336-1.814-.336v2c.448 0 .782.07 1.026.174zm-1.42-.255v-1h-1.357v2h1.357zm-1.357 0h1v-2.259h-2v2.259zm0-2.259v1h1.357v-2h-1.357zm1.357 0v1c.58 0 1.134-.1 1.641-.33l-.413-.912-.413-.91c-.203.092-.467.152-.816.152zm1.228-.242.409.913a3 3 0 0 0 1.249-1.007l-.82-.573-.819-.574a1 1 0 0 1-.427.329zm.838-.667.824.567c.324-.471.475-1.01.475-1.576h-2c0 .201-.05.335-.122.442zm.299-1.009h1c0-.531-.13-1.042-.42-1.496l-.843.537-.843.538a.75.75 0 0 1 .106.421zm-.263-.959.853-.52a2.73 2.73 0 0 0-1.13-1.027l-.448.894-.447.895a.74.74 0 0 1 .318.28zm-.725-.653.453-.892a3.35 3.35 0 0 0-1.532-.342v2c.285 0 .484.053.627.126zm-1.08-.234v-1c-.54 0-1.06.099-1.544.311l.401.916.402.916c.206-.09.449-.143.742-.143zm-1.143.227-.39-.92a3 3 0 0 0-1.237.948l.796.604.797.604c.094-.123.225-.23.425-.316zm-.83.632-.797-.604c-.342.45-.515.973-.537 1.532l1 .038.999.039c.007-.18.056-.301.131-.4zm-.334.966v-1H7.328v2h2.948zm-2.948 0 1 .017c.01-.646.19-1.183.527-1.645l-.81-.588-.809-.587c-.592.815-.89 1.756-.908 2.786zm.717-2.216.81.588c.353-.487.837-.882 1.482-1.177l-.417-.91-.416-.909c-.927.425-1.693 1.03-2.268 1.82zM9.92 8.803l.42.908c.641-.296 1.388-.455 2.258-.455v-2c-1.118 0-2.157.205-3.096.638zm2.678-.547v1c.883 0 1.607.16 2.2.447l.435-.9.436-.9c-.913-.443-1.946-.647-3.071-.647zm2.635.547-.436.9c.613.296 1.054.678 1.36 1.135l.83-.558.83-.558c-.526-.784-1.255-1.387-2.148-1.82zm1.754 1.477-.825.565c.303.442.454.933.45 1.502l1 .007 1 .006a4.55 4.55 0 0 0-.8-2.645zm.625 2.074-1 .006c.004.583-.17 1.008-.489 1.348l.73.684.728.685c.704-.75 1.037-1.684 1.031-2.73zm-.76 2.038-.732-.681c-.343.368-.8.62-1.427.734l.178.984.177.984c1.002-.18 1.866-.62 2.536-1.34zm-1.981 1.037h-1v.114h2v-.114zm0 .114-.128.992c.91.116 1.48.415 1.836.8l.735-.677.735-.678c-.762-.827-1.82-1.271-3.051-1.43zm2.443 1.115-.73.683c.371.396.572.894.568 1.57l1 .005 1 .005c.006-1.133-.352-2.14-1.108-2.947zm.838 2.258-1 .006a2.55 2.55 0 0 1-.517 1.603l.8.6.8.6a4.55 4.55 0 0 0 .917-2.815zm-.717 2.209-.803-.596c-.36.485-.873.89-1.58 1.2l.401.916.402.916c.978-.429 1.786-1.037 2.383-1.84zm-1.982 1.52-.401-.916c-.695.305-1.52.47-2.497.47v2c1.203 0 2.31-.204 3.3-.638z" fill="url(#c)" mask="url(#d)"/><defs><linearGradient id="a" x1="58.669" y1="45" x2="58.669" y2="88" gradientUnits="userSpaceOnUse"><stop stop-opacity="0"/><stop offset="1"/></linearGradient><linearGradient id="b" x1="115.924" y1="82.315" x2="-14.164" y2="35.056" gradientUnits="userSpaceOnUse"><stop offset=".029" stop-color="#27272A"/><stop offset=".351" stop-color="#FB923C" stop-opacity=".29"/><stop offset=".498" stop-color="#FB923C"/><stop offset=".646" stop-color="#FB923C" stop-opacity=".34"/><stop offset=".96" stop-color="#27272A"/></linearGradient><linearGradient id="c" x1="19.755" y1="26.432" x2="4.075" y2="24.133" gradientUnits="userSpaceOnUse"><stop offset=".029" stop-color="#27272A"/><stop offset=".351" stop-color="#FB923C" stop-opacity=".29"/><stop offset=".498" stop-color="#FB923C"/><stop offset=".646" stop-color="#FB923C" stop-opacity=".34"/><stop offset=".96" stop-color="#27272A"/></linearGradient></defs></svg>